<svg xmlns="http://www.w3.org/2000/svg" width="22.272" height="25.06" viewBox="0 0 22.272 25.06"><defs><style>.a{fill:#fff;}</style></defs><path class="a" d="M20.789,26.664c-2.116,0-7.26-2.706-11.579-8.515-4.04-5.433-6-9.358-6-12A4.248,4.248,0,0,1,5.413,2.544L5.6,2.411A5.406,5.406,0,0,1,8.29,1.6a1.547,1.547,0,0,1,1.494.976c.193.385,1.794,3.821,1.956,4.249a1.853,1.853,0,0,1-.6,2.166L11,9.088c-.382.265-1.092.756-1.191,1.355a1.222,1.222,0,0,0,.3.93c1.239,1.669,5.195,6.572,5.908,7.237a1.294,1.294,0,0,0,1.749.19,7.412,7.412,0,0,0,.722-.672l.051-.05a1.726,1.726,0,0,1,1.069-.345A2.479,2.479,0,0,1,21,18.2c1.2.81,3.906,2.621,3.906,2.621l.044.033a1.82,1.82,0,0,1,.263,2.264c-.6,1.155-2.481,3.539-4.421,3.539ZM8.289,2.534a4.455,4.455,0,0,0-2.146.634l-.2.141A3.349,3.349,0,0,0,4.134,6.15c0,2.435,1.9,6.178,5.821,11.445,4.277,5.753,9.167,8.141,10.834,8.141,1.418,0,3.044-1.981,3.6-3.041a.905.905,0,0,0-.035-1.118c-.313-.21-2.754-1.843-3.876-2.6a1.576,1.576,0,0,0-.87-.312.875.875,0,0,0-.463.122,9.2,9.2,0,0,1-.783.725,2.238,2.238,0,0,1-2.98-.221c-.8-.75-4.861-5.8-6.02-7.363a2.121,2.121,0,0,1-.468-1.634,3.308,3.308,0,0,1,1.578-1.967l.124-.086A.952.952,0,0,0,10.87,7.16C10.733,6.8,9.153,3.4,8.953,3c-.164-.327-.292-.464-.665-.464Z" transform="translate(-3.206 -1.604)"/></svg>