<svg xmlns="http://www.w3.org/2000/svg" width="12.73" height="25.06" viewBox="0 0 12.73 25.06">
  <g id="Grupo_3389" data-name="Grupo 3389" transform="translate(-125.97 -231.24)">
    <path id="Caminho_1616" data-name="Caminho 1616" d="M156.976,260.214c.163,0,.326-.008.488,0a.475.475,0,0,1,.468.47c.012.333.011.667,0,1a.474.474,0,0,1-.482.481c-.333.01-.667.011-1,0a.469.469,0,0,1-.467-.469c-.011-.333-.011-.667,0-1a.478.478,0,0,1,.482-.481C156.635,260.206,156.806,260.213,156.976,260.214Z" transform="translate(-28.046 -27.08)" fill="#fff"/>
    <path id="Caminho_1617" data-name="Caminho 1617" d="M209.484,260.216c.154,0,.309-.005.463,0a.482.482,0,0,1,.5.49q.014.487,0,.976a.48.48,0,0,1-.5.488q-.475.012-.951,0a.484.484,0,0,1-.5-.514q-.01-.463,0-.927a.49.49,0,0,1,.527-.513C209.175,260.212,209.33,260.215,209.484,260.216Z" transform="translate(-77.134 -27.083)" fill="#fff"/>
    <path id="Caminho_1618" data-name="Caminho 1618" d="M261.946,262.141c-.154,0-.309.005-.463,0a.483.483,0,0,1-.5-.489q-.014-.487,0-.976a.479.479,0,0,1,.5-.489q.475-.012.951,0a.483.483,0,0,1,.5.512q.01.463,0,.927a.49.49,0,0,1-.525.516C262.255,262.145,262.1,262.141,261.946,262.141Z" transform="translate(-126.194 -27.052)" fill="#fff"/>
    <path id="Caminho_1619" data-name="Caminho 1619" d="M156.942,314.633c-.154,0-.309.006-.463,0a.483.483,0,0,1-.494-.5c-.009-.325-.009-.651,0-.976a.474.474,0,0,1,.481-.481c.333-.01.667-.011,1,0a.47.47,0,0,1,.469.468c.012.333.011.667,0,1a.479.479,0,0,1-.481.483C157.283,314.64,157.112,314.632,156.942,314.633Z" transform="translate(-28.049 -76.118)" fill="#fff"/>
    <path id="Caminho_1620" data-name="Caminho 1620" d="M210.444,313.672c0,.154.006.309,0,.463a.483.483,0,0,1-.492.5c-.325.009-.651.01-.976,0a.48.48,0,0,1-.485-.5c-.007-.317-.008-.634,0-.951a.479.479,0,0,1,.491-.5q.487-.014.976,0a.479.479,0,0,1,.485.479C210.451,313.33,210.444,313.5,210.444,313.672Z" transform="translate(-77.129 -76.119)" fill="#fff"/>
    <path id="Caminho_1621" data-name="Caminho 1621" d="M262.938,313.673c0,.155.006.309,0,.463a.483.483,0,0,1-.494.5c-.325.009-.651.01-.976,0a.475.475,0,0,1-.483-.48c-.01-.325-.009-.651,0-.976a.478.478,0,0,1,.493-.5c.325-.009.651-.009.976,0a.479.479,0,0,1,.484.48C262.945,313.331,262.938,313.5,262.938,313.673Z" transform="translate(-126.197 -76.12)" fill="#fff"/>
    <path id="Caminho_1622" data-name="Caminho 1622" d="M157.943,366.182c0,.155.005.309,0,.463a.483.483,0,0,1-.491.5q-.487.015-.976,0a.479.479,0,0,1-.487-.5q-.012-.475,0-.951a.482.482,0,0,1,.514-.5q.463-.01.927,0a.49.49,0,0,1,.514.527C157.947,365.873,157.944,366.027,157.943,366.182Z" transform="translate(-28.054 -125.205)" fill="#fff"/>
    <path id="Caminho_1623" data-name="Caminho 1623" d="M209.482,365.216c.154,0,.309,0,.463,0a.482.482,0,0,1,.5.489q.015.487,0,.976a.48.48,0,0,1-.5.489q-.475.012-.951,0a.483.483,0,0,1-.5-.513q-.01-.463,0-.927a.489.489,0,0,1,.525-.515C209.173,365.213,209.328,365.216,209.482,365.216Z" transform="translate(-77.134 -125.231)" fill="#fff"/>
    <path id="Caminho_1624" data-name="Caminho 1624" d="M262.943,366.18c0,.154,0,.309,0,.463a.483.483,0,0,1-.489.5q-.487.015-.976,0a.479.479,0,0,1-.489-.5q-.012-.475,0-.951a.482.482,0,0,1,.512-.5q.463-.01.927,0a.49.49,0,0,1,.515.525C262.947,365.871,262.944,366.026,262.943,366.18Z" transform="translate(-126.202 -125.205)" fill="#fff"/>
    <path id="Caminho_1625" data-name="Caminho 1625" d="M156.944,419.641c-.155,0-.309.005-.463,0a.483.483,0,0,1-.5-.491q-.014-.488,0-.976a.479.479,0,0,1,.5-.487q.475-.011.951,0a.483.483,0,0,1,.5.514q.01.463,0,.927a.49.49,0,0,1-.527.513C157.253,419.645,157.1,419.641,156.944,419.641Z" transform="translate(-28.047 -174.273)" fill="#fff"/>
    <path id="Caminho_1626" data-name="Caminho 1626" d="M208.518,418.641c0-.154,0-.309,0-.463a.482.482,0,0,1,.49-.5q.487-.014.975,0a.479.479,0,0,1,.488.5q.012.475,0,.951a.484.484,0,0,1-.514.5q-.463.01-.927,0a.49.49,0,0,1-.513-.527C208.514,418.95,208.518,418.8,208.518,418.641Z" transform="translate(-77.159 -174.265)" fill="#fff"/>
    <path id="Caminho_1627" data-name="Caminho 1627" d="M261.949,419.631c-.163,0-.326.007-.488,0a.479.479,0,0,1-.48-.484c-.01-.333-.011-.667,0-1a.469.469,0,0,1,.47-.467c.333-.011.667-.011,1,0a.48.48,0,0,1,.481.507q.011.463,0,.927a.489.489,0,0,1-.522.519c-.154,0-.309,0-.463,0Z" transform="translate(-126.194 -174.264)" fill="#fff"/>
    <path id="Caminho_1628" data-name="Caminho 1628" d="M156.019,471.146c0-.155,0-.309,0-.464a.482.482,0,0,1,.486-.5c.325-.01.651-.009.976,0a.479.479,0,0,1,.492.5q.013.475,0,.951a.484.484,0,0,1-.51.5q-.463.011-.927,0a.489.489,0,0,1-.517-.523C156.015,471.455,156.019,471.3,156.019,471.146Z" transform="translate(-28.086 -223.34)" fill="#fff"/>
    <path id="Caminho_1629" data-name="Caminho 1629" d="M209.442,472.133c-.154,0-.309.006-.463,0a.483.483,0,0,1-.495-.495c-.009-.325-.009-.651,0-.976a.474.474,0,0,1,.481-.482c.333-.01.667-.011,1,0a.47.47,0,0,1,.469.468c.012.333.011.667,0,1a.479.479,0,0,1-.481.483C209.784,472.14,209.612,472.132,209.442,472.133Z" transform="translate(-77.123 -223.339)" fill="#fff"/>
    <path id="Caminho_1630" data-name="Caminho 1630" d="M261.976,470.213c.154,0,.309-.006.463,0a.482.482,0,0,1,.5.493c.009.325.01.651,0,.976a.475.475,0,0,1-.48.484c-.325.011-.651.01-.976,0a.479.479,0,0,1-.5-.492q-.013-.488,0-.976a.478.478,0,0,1,.479-.484C261.634,470.206,261.8,470.214,261.976,470.213Z" transform="translate(-126.196 -223.376)" fill="#fff"/>
    <path id="Caminho_1631" data-name="Caminho 1631" d="M138.05,231.24H126.625c-.49,0-.651.157-.651.639q0,11.891,0,23.779a.651.651,0,0,0,.347.642H137.71q.249,0,.5-.008a.483.483,0,0,0,.487-.491q.007-.244.007-.487V231.9C138.7,231.4,138.546,231.24,138.05,231.24Zm-4.262,24.07h-2.906v-3.886h2.906Zm1-.008v-2.217c0-.7,0-1.4,0-2.1a.488.488,0,0,0-.514-.553q-1.932-.007-3.866,0c-.336,0-.512.208-.513.578q0,2.007,0,4.013v.283h-2.922v-23.07H137.7V255.3Z" transform="translate(0 0)" fill="#fff"/>
  </g>
</svg>
