<svg xmlns="http://www.w3.org/2000/svg" width="55.646" height="9.52" viewBox="0 0 55.646 9.52">
  <g id="Grupo_2392" data-name="Grupo 2392" transform="translate(757.499 5405.641)">
    <g id="Caminho_1119" data-name="Caminho 1119" transform="translate(-729.648 -5397.121) rotate(-135)" fill="none">
      <path d="M6.024,0,5.881,5.881,0,6.024,2.516,3.509Z" stroke="none"/>
      <path d="M 4.963607788085938 2.47511100769043 L 3.222669363021851 4.216049194335938 L 2.47511100769043 4.963607788085938 L 4.904143333435059 4.904143333435059 L 4.963607788085938 2.47511100769043 M 6.024499416351318 -4.76837158203125e-07 L 5.880539417266846 5.880539417266846 L -4.76837158203125e-07 6.024499416351318 L 2.515559434890747 3.508939504623413 L 6.024499416351318 -4.76837158203125e-07 Z" stroke="none" fill="#fff"/>
    </g>
    <path id="Caminho_1332" data-name="Caminho 1332" d="M6.024,0,5.881,5.881,0,6.024Z" transform="translate(-729.648 -5396.603) rotate(-135)" fill="none"/>
    <g id="Grupo_3391" data-name="Grupo 3391">
      <path id="Caminho_1329" data-name="Caminho 1329" d="M1.895,0H54.646V.024H0V0Z" transform="translate(-702.354 -5401.524) rotate(180)" fill="#516267" stroke="#fff" stroke-width="1"/>
      <g id="Caminho_1632" data-name="Caminho 1632" transform="translate(-729.648 -5396.121) rotate(-135)" fill="#00487e">
        <path d="M 1.237545132637024 5.494053840637207 L 2.869109392166138 3.862489461898804 L 5.494053840637207 1.237545132637024 L 5.392341136932373 5.392341136932373 L 1.237545132637024 5.494053840637207 Z" stroke="none"/>
        <path d="M 4.963607788085938 2.47511100769043 L 3.222669363021851 4.216049194335938 L 2.47511100769043 4.963607788085938 L 4.904143333435059 4.904143333435059 L 4.963607788085938 2.47511100769043 M 6.024499416351318 -4.76837158203125e-07 L 5.880539417266846 5.880539417266846 L -4.76837158203125e-07 6.024499416351318 L 2.515559434890747 3.508939504623413 L 6.024499416351318 -4.76837158203125e-07 Z" stroke="none" fill="#00487e"/>
      </g>
    </g>
  </g>
</svg>
