<?xml version="1.0" encoding="utf-8"?>
<!-- Generator: Adobe Illustrator 23.0.4, SVG Export Plug-In . SVG Version: 6.00 Build 0)  -->
<svg version="1.1" id="Camada_1" xmlns="http://www.w3.org/2000/svg" xmlns:xlink="http://www.w3.org/1999/xlink" x="0px" y="0px"
	 viewBox="0 0 595.3 841.9" style="enable-background:new 0 0 595.3 841.9;" xml:space="preserve">
<style type="text/css">
	.st0{fill:#FFFFFF;}
	.st1{fill:#516368;}
	.st2{fill:url(#Caminho_1295_1_);}
</style>
<g id="Grupo_2721" transform="translate(-347 -1170.358)">
	<g id="Grupo_2137" transform="translate(347 1183.113)">
		<path id="Caminho_1282" class="st0" d="M137,274.9c-0.2,3.1,2.2,5.8,5.3,6c0.1,0,0.2,0,0.3,0c3.1,0,5.5-2.5,5.5-5.6
			c0-3.1-2.5-5.5-5.6-5.5c-1.5,0-2.9,0.6-4,1.7C137.6,272.4,136.5,273.5,137,274.9z"/>
		<path id="Caminho_1283" class="st1" d="M374,362.7c-1.3-0.2-2.5-0.3-3.8-0.5c-9.3-1.3-17.7-5.9-24-12.8c-0.5-0.6-1.3-0.9-2-0.5
			c-9.7,3-19.8,4.6-29.9,4.9c-25.7,1-51-6.9-71.5-22.5c-16.3-12.2-29-28.7-36.7-47.5c-1-2.4-1.6-2.8-4.2-2.8c-11.8,0-23.6,0-35.4,0
			c-0.9,0-1.8-0.1-2.7-0.2c-3-0.6-4.9-3.5-4.3-6.4c0.5-2.3,2.4-4.1,4.7-4.4c0.8-0.1,1.6-0.2,2.4-0.2c10.8,0,21.7,0,32.5,0
			c0.6,0,1.1-0.1,1.8-0.1l-3.4-21.4h-1.1c-7.4,0-14.9,0-22.3,0c-1.3,0-2.5-0.3-3.7-0.7c-1.9-0.8-3.2-2.7-3.1-4.7
			c-0.1-2.1,1-4,2.8-4.9c1.3-0.6,2.7-0.9,4.1-0.8h23.1c0.9-7.2,1.8-14.2,2.7-21.4h-1c-11.7,0-23.3,0-35,0c-6.7,0-13.5,0.1-20.3,0
			c-2.5,0.1-4.9-1.1-6.4-3.1c-0.2-0.4-0.4-0.8-0.4-1.2c0-0.4,0-0.8,0-1.2c-0.1-2.5,1.6-4.8,4.1-5.3c0.9-0.2,1.8-0.4,2.6-0.4
			c16.5,0,32.9,0,49.4,0c2.6,0,5.1,0,7.7,0.1c1.6,0.1,3-0.8,3.6-2.3c2.9-6.3,5.8-12.6,8.6-18.9c0.1-0.1,0.1-0.3,0.2-0.5h-1.1
			c-10,0-20,0-29.9,0c-1.3,0-2.6-0.3-3.8-0.7c-2.1-0.7-3.4-2.7-3.2-4.9c-0.1-2.1,1.2-4.1,3.2-4.8c1.2-0.5,2.4-0.7,3.7-0.7
			c9.7-0.1,19.4,0,29-0.1c2.2,0,4.5-0.1,6.7,0c2.1,0.1,4-0.8,5.3-2.4c8.9-10.8,19.6-19.8,31.8-26.7c8.9-5,18.3-8.7,28.2-11.2
			c0.4-0.1,0.8-0.2,1.2-0.3c1-0.2,1.7-1.2,1.6-2.2c0-3.5,0-7,0-10.6c0.1-1.1-0.7-2.1-1.7-2.4c-2.4-0.9-4.7-2.3-6.6-4
			c-7.7-7-8.3-19-1.3-26.7c1.9-2.1,4.3-3.8,7-4.9c2.5-1,5.1-1.5,7.7-1.5c7.4,0,14.8-0.1,22.2-0.1c5.9,0,11.8-0.2,17.7,0.1
			c7.9,0.4,14.1,3.9,17.3,11.4c4.3,9.4,0.1,20.5-9.3,24.7c-0.2,0.1-0.4,0.2-0.6,0.3c-0.7,0.3-1.5,0.7-2.2,1
			c-0.4,0.1-0.7,0.5-0.6,0.9c0,4,0,8,0,12c0,0.6,0.3,0.8,0.8,1c5.1,1.8,10.2,3.6,15.2,5.5c11.4,4.4,22,10.6,31.4,18.3
			c18.9,15.1,32,36.1,37.4,59.6c2.4,9.4,3.6,19,3.6,28.7c0,13.9-2.7,27.6-8,40.4c-2.1,5.1-4.5,10-7.2,14.8c-0.3,0.4-0.3,1,0,1.4
			c13.1,18,9.1,43.2-9,56.3c-6.1,4.5-13.4,7.1-21,7.6c-0.2,0-0.3,0.1-0.5,0.1L374,362.7z M311.4,316.5c8.6-0.1,17-1.6,25.1-4.6
			c0.5-0.2,0.8-0.6,0.9-1.1c4.8-16.1,19-27.5,35.7-28.8c0.6,0,1.1-0.3,1.4-0.9c1.4-2.6,3-5,4.2-7.7c6.9-14.1,9.2-30.1,6.4-45.6
			c-2.6-16.5-10.8-31.6-23.2-42.8c-17.1-16.2-40.8-23.2-63.9-19.1c-16.1,2.4-30.9,10.2-42,22.2c-17.1,17.3-24.5,41.9-19.9,65.7
			c2.8,16.9,11.5,32.4,24.5,43.5C274.6,310,292.7,316.8,311.4,316.5z M400,289.8c27.1-49.3,9-111.3-40.3-138.4s-111.3-9-138.4,40.3
			c-18.7,34-16.4,75.7,5.9,107.5c29.9,42.8,81.5,49.4,112,39.3c-2-4.6-3.1-9.5-3.4-14.5c-20.1,6.1-41.8,4.7-61-4.1
			c-19.3-8.5-34.7-23.9-43.3-43.2c-19.9-43.7-0.6-95.2,43-115c29.1-13.3,63.2-9.4,88.6,10c15.2,11.4,26.2,27.5,31.1,45.9
			c6.2,22.1,3.4,45.8-7.9,65.8C391.3,284.6,395.9,286.8,400,289.8L400,289.8z M406.7,322.4c0-16.9-13.7-30.6-30.6-30.6
			c-16.9,0-30.6,13.7-30.6,30.6c0,16.9,13.7,30.6,30.6,30.6C393,352.9,406.7,339.3,406.7,322.4C406.7,322.4,406.7,322.4,406.7,322.4
			L406.7,322.4z M310.5,105.4L310.5,105.4c6.2,0,12.5,0,18.7,0c0.8,0,1.7-0.1,2.5-0.2c4.2-0.5,7.3-4.3,6.8-8.5c-0.1-1.1-0.5-2.1-1-3
			c-1.7-2.7-4.7-4.2-7.8-4c-3.4-0.1-6.9,0-10.3,0c-9.2,0-18.4,0-27.6,0c-0.8,0-1.6,0.1-2.4,0.2c-4.3,0.5-7.3,4.3-6.9,8.6
			c0.5,4.1,4,7.1,8.1,6.9C297.3,105.5,303.9,105.4,310.5,105.4z M323.9,116.8h-26.7v11.1h26.7V116.8z"/>
		<path id="Caminho_1284" class="st1" d="M137,274.9c-0.4-1.4,0.6-2.4,1.6-3.4c2.1-2.2,5.7-2.3,7.9-0.2c2.2,2.1,2.3,5.7,0.2,7.9
			c-1,1.1-2.5,1.7-4,1.7c-3.1,0-5.6-2.6-5.6-5.7C137,275.1,137,275,137,274.9z"/>
		<path id="Caminho_1286" class="st0" d="M399.9,289.8c-4.1-3-8.7-5.2-13.5-6.5c11.3-20,14.1-43.7,7.9-65.8
			c-4.9-18.3-15.9-34.5-31.1-45.9c-38.2-29.1-92.6-21.7-121.7,16.4c-19.4,25.5-23.2,59.5-10,88.6c8.6,19.3,24,34.7,43.3,43.2
			c19.1,8.8,40.8,10.3,61,4.1c0.2,5,1.4,9.9,3.4,14.5c-30.5,10.1-82.1,3.5-112-39.3c-32.3-46.1-21.1-109.6,25.1-141.9
			c46.1-32.3,109.6-21.1,141.9,25.1C416.3,214.1,418.6,255.8,399.9,289.8L399.9,289.8z"/>
		<path id="Caminho_1287" class="st0" d="M406.7,322.4c0,16.9-13.7,30.6-30.6,30.6s-30.6-13.7-30.6-30.6c0-16.9,13.7-30.6,30.6-30.6
			C393,291.8,406.7,305.5,406.7,322.4z M381,316.9v-10.6h-9.7v10.6h-10.6v9.7h10.6v10.5h9.7v-10.6h10.6v-9.7L381,316.9z"/>
		<path id="Caminho_1290" class="st1" d="M293,240.8c0.4-1.9,0.6-3.7,1.2-5.6c0.5-1.4,0.1-3-1-4c-3.4-3.4-6.8-6.8-10.2-10.2
			c-1.1-1-1.8-2.5-2-4c-0.2-3,2-5.6,5-5.8c1-0.1,1.9,0.1,2.8,0.5c1.1,0.6,2.2,1.4,3.1,2.3c3.2,3.1,6.4,6.3,9.5,9.5
			c0.9,1.1,2.5,1.5,3.9,0.8c3.6-1.4,7.5-1.4,11.1,0c1.3,0.6,2.8,0.3,3.7-0.8c8.2-8.2,16.4-16.4,24.6-24.6c0.6-0.7,1.3-1.4,2.1-2
			c1.6-1.3,3.9-1.6,5.8-0.6c1.9,0.8,3.1,2.7,3.2,4.7c0.1,1.5-0.4,2.9-1.4,3.9c-1.2,1.4-2.6,2.7-3.9,4c-7.4,7.4-14.8,14.7-22.1,22.1
			c-1.2,1.1-1.7,2.8-1.1,4.4c3,9.1-2,18.9-11.1,21.9c-9.1,3-18.9-2-21.9-11.1c-0.3-0.9-0.5-1.8-0.7-2.8c-0.1-0.9-0.2-1.8-0.2-2.7
			L293,240.8z M310.6,234.6c-3.4-0.1-6.1,2.6-6.2,5.9c0,0.1,0,0.1,0,0.2c-0.1,3.4,2.6,6.3,6,6.3c3.4,0.1,6.3-2.6,6.3-6
			c0-0.1,0-0.2,0-0.2c0.1-3.3-2.6-6.1-5.9-6.2C310.8,234.6,310.7,234.6,310.6,234.6L310.6,234.6z"/>
		<path id="Caminho_1291" class="st1" d="M316.3,183.5c0,1.3-0.1,2.6-0.3,3.9c-0.7,3-3.7,4.8-6.6,4.1c-2.3-0.5-4-2.5-4.2-4.9
			c-0.1-2-0.1-4,0-6.1c0.1-3,2.6-5.3,5.5-5.2c0,0,0.1,0,0.1,0c3,0,5.5,2.4,5.5,5.5c0,0,0,0.1,0,0.1
			C316.3,181.7,316.3,182.6,316.3,183.5L316.3,183.5z"/>
		<path id="Caminho_1292" class="st1" d="M304.9,298c0-1.3,0.1-2.5,0.3-3.7c0.7-3,3.6-4.9,6.6-4.2c2.3,0.5,4,2.4,4.3,4.7
			c0.2,2.1,0.2,4.2,0,6.2c-0.1,3-2.6,5.4-5.6,5.2c0,0-0.1,0-0.1,0c-3-0.2-5.4-2.7-5.3-5.7C304.9,299.7,305,298.8,304.9,298
			L304.9,298z"/>
		<path id="Caminho_1293" class="st1" d="M369.3,246.4c-1.5,0-2.9,0.1-4.4,0c-3.1-0.3-5.3-3-5.1-6c0.2-2.8,2.5-5,5.3-5.1
			c2.1-0.1,4.2-0.1,6.2,0.1c2.8,0.3,4.9,2.7,4.7,5.5c-0.1,2.8-2.2,5.1-4.9,5.4c-0.6,0.1-1.3,0.1-2,0.2L369.3,246.4z"/>
		<path id="Caminho_1294" class="st1" d="M253.3,246.3c-1.2-0.1-2.4-0.1-3.5-0.3c-2.7-0.3-4.7-2.6-4.7-5.3c-0.1-2.8,2-5.1,4.7-5.4
			c2.4-0.2,4.8-0.2,7.1,0c2.7,0.3,4.7,2.7,4.5,5.5c0.2,2.7-1.8,5.1-4.5,5.3C255.7,246.2,254.4,246.2,253.3,246.3z"/>
		
			<linearGradient id="Caminho_1295_1_" gradientUnits="userSpaceOnUse" x1="24.0364" y1="811.8719" x2="24.0364" y2="809.3755" gradientTransform="matrix(12.386 0 0 -12.374 78.3898 10352.4258)">
			<stop  offset="0" style="stop-color:#0DAAE0"/>
			<stop  offset="1" style="stop-color:#57B78B"/>
		</linearGradient>
		<path id="Caminho_1295" class="st2" d="M381,316.9h10.6v9.7H381v10.6h-9.7v-10.5h-10.6v-9.7h10.6v-10.6h9.7L381,316.9z"/>
		<path id="Caminho_1296" class="st0" d="M310.6,234.6c3.3-0.1,6.1,2.6,6.2,6c0,0.1,0,0.1,0,0.2c0.1,3.4-2.7,6.2-6.1,6.3
			c-3.4,0.1-6.2-2.7-6.3-6.1c0-0.1,0-0.2,0-0.2c0-3.4,2.6-6.1,6-6.1C310.5,234.6,310.6,234.6,310.6,234.6z"/>
	</g>
</g>
</svg>
