<?xml version="1.0" encoding="utf-8"?>
<!-- Generator: Adobe Illustrator 23.0.4, SVG Export Plug-In . SVG Version: 6.00 Build 0)  -->
<svg version="1.1" id="Camada_1" xmlns="http://www.w3.org/2000/svg" xmlns:xlink="http://www.w3.org/1999/xlink" x="0px" y="0px"
	 viewBox="0 0 595.3 841.9" style="enable-background:new 0 0 595.3 841.9;" xml:space="preserve">
<style type="text/css">
	.st0{fill:#FFFFFF;}
	.st1{fill:#516267;}
	.st2{fill:url(#Retângulo_1875_1_);}
</style>
<g id="Grupo_2720" transform="translate(-954 -1170.113)">
	<g id="Grupo_2719" transform="translate(954 1170.113)">
		<path id="Caminho_1282" class="st0" d="M116.9,279.3c-0.2,3.3,2.3,6.1,5.6,6.3c0.1,0,0.2,0,0.3,0c3.2,0,5.9-2.7,5.8-5.9
			c0-3.2-2.7-5.9-5.9-5.8c-1.6,0-3.1,0.7-4.2,1.8C117.5,276.7,116.5,277.8,116.9,279.3z"/>
		<path id="Caminho_1283" class="st1" d="M367.8,372.2c-1.3-0.2-2.7-0.3-4-0.5c-9.8-1.4-18.8-6.2-25.4-13.6
			c-0.5-0.7-1.4-0.9-2.2-0.6c-10.3,3.1-20.9,4.9-31.7,5.2c-27.2,1.1-54-7.3-75.7-23.8c-17.3-13-30.7-30.3-38.9-50.3
			c-1.1-2.5-1.7-3-4.4-3c-12.5,0-25,0-37.5,0c-0.9,0-1.9-0.1-2.8-0.2c-3.2-0.6-5.2-3.7-4.6-6.8c0.5-2.5,2.5-4.3,5-4.7
			c0.8-0.1,1.7-0.2,2.6-0.2c11.5,0,23,0,34.4,0c0.6,0,1.2-0.1,1.9-0.1l-3.6-22.6h-1.1c-7.9,0-15.8,0-23.6,0c-1.4,0-2.7-0.3-3.9-0.8
			c-2.1-0.8-3.4-2.8-3.2-5c-0.1-2.2,1-4.2,3-5.2c1.3-0.7,2.8-1,4.3-0.9h24.4c1-7.6,1.9-15.1,2.9-22.7h-1.1c-12.3,0-24.7,0-37,0
			c-7.1,0-14.3,0.1-21.4,0c-2.7,0.1-5.2-1.1-6.7-3.3c-0.2-0.4-0.4-0.8-0.4-1.3c0-0.4,0-0.9,0-1.3c-0.1-2.7,1.7-5.1,4.3-5.7
			c0.9-0.2,1.9-0.4,2.8-0.4c17.4,0,34.9,0,52.3,0c2.7,0,5.4,0,8.2,0.1c1.7,0.1,3.2-0.8,3.8-2.4c3-6.7,6.1-13.3,9.1-20
			c0.1-0.1,0.1-0.3,0.2-0.5h-1.2c-10.6,0-21.1,0-31.7,0c-1.4,0-2.8-0.3-4.1-0.8c-2.2-0.8-3.5-2.9-3.3-5.2c-0.1-2.3,1.3-4.3,3.4-5.1
			c1.2-0.5,2.5-0.7,3.9-0.8c10.2-0.1,20.5-0.1,30.7-0.1c2.4,0,4.8-0.1,7.1,0c2.2,0.1,4.3-0.8,5.6-2.6c9.4-11.4,20.8-21,33.6-28.3
			c9.4-5.3,19.4-9.2,29.9-11.8c0.4-0.1,0.9-0.2,1.3-0.4c1.1-0.2,1.8-1.2,1.7-2.3c0-3.7,0-7.5,0-11.2c0.1-1.2-0.7-2.2-1.8-2.6
			c-2.6-1-4.9-2.5-7-4.3c-8.2-7.4-8.8-20.1-1.3-28.2c2.1-2.3,4.6-4,7.4-5.1c2.6-1,5.4-1.5,8.1-1.5c7.8,0,15.7-0.1,23.5-0.1
			c6.2,0,12.5-0.2,18.7,0.1c8.4,0.4,14.9,4.1,18.3,12.1c4.5,9.9,0.1,21.7-9.8,26.2c-0.2,0.1-0.4,0.2-0.6,0.3c-0.8,0.4-1.6,0.7-2.3,1
			c-0.4,0.1-0.7,0.5-0.7,1c0,4.2,0,8.5,0,12.7c0,0.7,0.3,0.8,0.8,1c5.4,1.9,10.8,3.8,16.1,5.8c12,4.7,23.3,11.3,33.3,19.4
			c20,15.9,33.9,38.2,39.6,63.1c2.5,9.9,3.8,20.1,3.8,30.4c0,14.7-2.9,29.2-8.4,42.8c-2.2,5.4-4.7,10.6-7.6,15.7
			c-0.4,0.4-0.3,1.1,0,1.5c13.8,19.1,9.6,45.8-9.5,59.6c-6.5,4.7-14.2,7.5-22.2,8c-0.2,0-0.4,0.1-0.5,0.2L367.8,372.2z M301.6,323.3
			c9.1-0.1,18-1.7,26.6-4.8c0.5-0.2,0.9-0.6,1-1.1c5-17,20.1-29.1,37.8-30.4c0.6,0,1.2-0.3,1.5-0.9c1.5-2.7,3.1-5.3,4.5-8.1
			c7.3-15,9.7-31.9,6.8-48.3c-2.8-17.5-11.5-33.5-24.6-45.3c-18.1-17.1-43.2-24.6-67.7-20.2c-17.1,2.5-32.7,10.8-44.4,23.5
			C225,206,217.1,232,221.9,257.2c2.9,17.9,12.1,34.3,26,46.1C262.6,316.5,281.8,323.6,301.6,323.3z M395.3,295.1
			c28.7-52.2,9.6-117.8-42.7-146.5c-52.2-28.7-117.8-9.6-146.5,42.7c-19.8,36-17.4,80.1,6.2,113.8c31.7,45.3,86.3,52.3,118.6,41.6
			c-2.1-4.8-3.3-10-3.6-15.3c-21.3,6.5-44.3,4.9-64.5-4.4c-20.4-9-36.8-25.3-45.8-45.7c-21-46.2-0.6-100.7,45.6-121.8
			c30.8-14,66.9-10,93.8,10.5c16.1,12,27.7,29.1,32.9,48.5c6.6,23.4,3.6,48.5-8.4,69.7C386.1,289.6,391,291.9,395.3,295.1
			L395.3,295.1z M402.4,329.5c0-17.9-14.5-32.4-32.4-32.4s-32.4,14.5-32.4,32.4c0,17.9,14.5,32.4,32.4,32.4
			C387.9,361.9,402.4,347.4,402.4,329.5C402.5,329.6,402.5,329.5,402.4,329.5L402.4,329.5z M300.6,99.9L300.6,99.9
			c6.6,0,13.2,0,19.8,0c0.9,0,1.8-0.1,2.6-0.2c4.5-0.5,7.7-4.5,7.2-9c-0.1-1.1-0.5-2.2-1.1-3.2c-1.7-2.8-4.9-4.5-8.3-4.2
			c-3.6-0.1-7.3,0-10.9,0c-9.7,0-19.5,0-29.2,0c-0.9,0-1.7,0.1-2.6,0.2c-4.5,0.5-7.8,4.6-7.3,9.1c0.5,4.3,4.3,7.5,8.6,7.3
			C286.6,100,293.6,99.9,300.6,99.9z M314.8,112h-28.3v11.8h28.3V112z"/>
		<path id="Caminho_1284" class="st1" d="M116.9,279.3c-0.5-1.5,0.6-2.6,1.7-3.6c2.3-2.4,6-2.4,8.3-0.2s2.4,6,0.2,8.3
			c-1.1,1.2-2.6,1.8-4.3,1.8c-3.3,0-6-2.7-5.9-6C116.9,279.5,116.9,279.4,116.9,279.3z"/>
		<path id="Caminho_1286" class="st0" d="M395.3,295.1c-4.3-3.1-9.2-5.5-14.3-6.9c12-21.2,15-46.3,8.4-69.7
			c-5.2-19.4-16.8-36.5-32.9-48.5c-40.4-30.8-98.1-23-128.9,17.4c-20.5,26.9-24.6,63-10.5,93.8c9.1,20.4,25.4,36.7,45.8,45.7
			c20.2,9.3,43.2,10.9,64.5,4.4c0.2,5.3,1.4,10.5,3.6,15.3c-32.3,10.7-86.9,3.7-118.6-41.6c-34.2-48.8-22.3-116.1,26.5-150.2
			c48.8-34.2,116.1-22.3,150.2,26.5C412.7,214.9,415.1,259,395.3,295.1L395.3,295.1z"/>
		<path id="Caminho_1290" class="st1" d="M282.1,243.2c0.4-2,0.7-4,1.3-5.9c0.6-1.5,0.1-3.2-1.1-4.3c-3.6-3.6-7.2-7.2-10.8-10.8
			c-1.2-1.1-1.9-2.6-2.1-4.2c-0.3-3.2,2.1-5.9,5.3-6.2c1-0.1,2,0.1,2.9,0.5c1.2,0.6,2.3,1.4,3.2,2.4c3.4,3.3,6.7,6.7,10,10.1
			c1,1.2,2.7,1.6,4.1,0.9c3.8-1.5,8-1.5,11.8,0c1.4,0.6,3,0.3,3.9-0.9c8.7-8.7,17.3-17.4,26-26c0.7-0.7,1.4-1.4,2.2-2.1
			c1.7-1.4,4.2-1.7,6.2-0.7c2,0.9,3.3,2.8,3.3,5c0.1,1.5-0.4,3.1-1.5,4.2c-1.3,1.4-2.7,2.8-4.1,4.2c-7.8,7.8-15.6,15.6-23.4,23.4
			c-1.3,1.1-1.8,3-1.1,4.6c3.2,9.6-2.1,20-11.7,23.2c-9.6,3.2-20-2.1-23.2-11.7c-0.3-1-0.5-1.9-0.7-2.9c-0.1-0.9-0.2-1.9-0.3-2.8
			L282.1,243.2z M300.8,236.7c-3.5-0.1-6.5,2.7-6.6,6.3c0,0.1,0,0.2,0,0.2c-0.1,3.6,2.8,6.6,6.4,6.7c3.6,0.1,6.6-2.8,6.7-6.4
			c0-0.1,0-0.2,0-0.3c0.1-3.5-2.7-6.5-6.3-6.6C300.9,236.6,300.8,236.6,300.8,236.7L300.8,236.7z"/>
		<path id="Caminho_1291" class="st1" d="M306.8,182.5c0,1.4-0.1,2.8-0.3,4.1c-0.7,3.1-3.9,5.1-7,4.4c-2.5-0.6-4.3-2.7-4.5-5.2
			c-0.1-2.1-0.1-4.3,0-6.4c0.1-3.2,2.7-5.6,5.9-5.6c0,0,0.1,0,0.1,0c3.2,0,5.8,2.6,5.8,5.8c0,0,0,0.1,0,0.1
			C306.7,180.7,306.7,181.6,306.8,182.5L306.8,182.5z"/>
		<path id="Caminho_1292" class="st1" d="M294.7,303.7c0-1.3,0.1-2.7,0.3-4c0.7-3.2,3.8-5.2,7-4.5c2.4,0.5,4.3,2.5,4.6,5
			c0.2,2.2,0.2,4.4,0,6.6c-0.1,3.2-2.8,5.7-6,5.6c0,0-0.1,0-0.1,0c-3.2-0.2-5.7-2.8-5.6-6C294.7,305.5,294.8,304.6,294.7,303.7
			L294.7,303.7z"/>
		<path id="Caminho_1293" class="st1" d="M362.8,249.1c-1.5,0-3.1,0.1-4.6,0c-3.2-0.3-5.6-3.1-5.4-6.4c0.3-3,2.7-5.3,5.6-5.4
			c2.2-0.1,4.4-0.1,6.6,0.2c2.9,0.3,5.2,2.9,5,5.8c-0.1,2.9-2.3,5.4-5.2,5.8c-0.7,0.1-1.4,0.1-2.1,0.2L362.8,249.1z"/>
		<path id="Caminho_1294" class="st1" d="M240,249c-1.3-0.1-2.5-0.1-3.7-0.3c-2.9-0.3-5-2.8-5-5.6c-0.1-2.9,2.1-5.4,5-5.8
			c2.5-0.2,5-0.2,7.5,0c2.9,0.3,5,2.9,4.8,5.8c0.2,2.9-1.9,5.3-4.8,5.6C242.6,248.9,241.2,249,240,249z"/>
		<path id="Caminho_1296" class="st0" d="M300.8,236.7c3.5-0.1,6.5,2.8,6.5,6.3c0,0.1,0,0.2,0,0.2c0.1,3.6-2.8,6.6-6.4,6.7
			c-3.6,0.1-6.6-2.8-6.7-6.4c0-0.1,0-0.2,0-0.3c0-3.5,2.8-6.5,6.3-6.5C300.6,236.6,300.7,236.6,300.8,236.7z"/>
	</g>
	
		<linearGradient id="Retângulo_1875_1_" gradientUnits="userSpaceOnUse" x1="977.3645" y1="1954.7781" x2="977.3645" y2="1952.1353" gradientTransform="matrix(12 0 0 -4 -10403.8623 9313.9561)">
		<stop  offset="0" style="stop-color:#C467ED"/>
		<stop  offset="1" style="stop-color:#F73B62"/>
	</linearGradient>
	<rect id="Retângulo_1875" x="1308.7" y="1494.8" class="st2" width="31.7" height="10.6"/>
</g>
</svg>
