<svg xmlns="http://www.w3.org/2000/svg" xmlns:xlink="http://www.w3.org/1999/xlink" width="79.779" height="79.669" viewBox="0 0 79.779 79.669"><defs><style>.a,.b{fill:#fff;}.c,.d{stroke:none;}.d{fill:#ff961a;}.e{filter:url(#a);}</style><filter id="a" x="0" y="0" width="79.779" height="79.669" filterUnits="userSpaceOnUse"><feOffset dy="3" input="SourceAlpha"/><feGaussianBlur stdDeviation="3.5" result="b"/><feFlood flood-opacity="0.349"/><feComposite operator="in" in2="b"/><feComposite in="SourceGraphic"/></filter></defs><g transform="translate(-592.177 -710.166)"><g class="e" transform="matrix(1, 0, 0, 1, 592.18, 710.17)"><ellipse class="a" cx="29.39" cy="29.335" rx="29.39" ry="29.335" transform="translate(10.5 7.5)"/></g><g class="b" transform="translate(617.075 731.679)"><path class="c" d="M 15.12502288818359 29.25004196166992 C 11.35209274291992 29.25004196166992 7.80499267578125 27.78078269958496 5.137123107910156 25.11292266845703 C 2.469262838363647 22.44505310058594 1.000002861022949 18.89795303344727 1.000002861022949 15.12502288818359 C 1.000002861022949 11.35209274291992 2.469262838363647 7.80499267578125 5.137123107910156 5.137123107910156 C 7.80499267578125 2.469262838363647 11.35209274291992 1.000002861022949 15.12502288818359 1.000002861022949 C 18.89795303344727 1.000002861022949 22.44505310058594 2.469262838363647 25.11292266845703 5.137123107910156 C 27.78078269958496 7.80499267578125 29.25004196166992 11.35209274291992 29.25004196166992 15.12502288818359 C 29.25004196166992 18.89795303344727 27.78078269958496 22.44505310058594 25.11292266845703 25.11292266845703 C 22.44505310058594 27.78078269958496 18.89795303344727 29.25004196166992 15.12502288818359 29.25004196166992 Z"/><path class="d" d="M 15.12502288818359 2.000003814697266 C 11.61920356750488 2.000003814697266 8.323223114013672 3.365242004394531 5.844232559204102 5.844232559204102 C 3.365242004394531 8.323223114013672 2.000003814697266 11.61920356750488 2.000003814697266 15.12502288818359 C 2.000003814697266 18.63084411621094 3.365242004394531 21.92682266235352 5.844232559204102 24.40581321716309 C 8.323223114013672 26.88480377197266 11.61920356750488 28.25004196166992 15.12502288818359 28.25004196166992 C 18.63084411621094 28.25004196166992 21.92682266235352 26.88480377197266 24.40581321716309 24.40581321716309 C 26.88480377197266 21.92682266235352 28.25004196166992 18.63084411621094 28.25004196166992 15.12502288818359 C 28.25004196166992 11.61920356750488 26.88480377197266 8.323223114013672 24.40581321716309 5.844232559204102 C 21.92682266235352 3.365242004394531 18.63084411621094 2.000003814697266 15.12502288818359 2.000003814697266 M 15.12502288818359 3.814697265625e-06 C 23.47834396362305 3.814697265625e-06 30.25004196166992 6.771703720092773 30.25004196166992 15.12502288818359 C 30.25004196166992 23.47834396362305 23.47834396362305 30.25004196166992 15.12502288818359 30.25004196166992 C 6.771703720092773 30.25004196166992 3.814697265625e-06 23.47834396362305 3.814697265625e-06 15.12502288818359 C 3.814697265625e-06 6.771703720092773 6.771703720092773 3.814697265625e-06 15.12502288818359 3.814697265625e-06 Z"/></g></g></svg>