<?xml version="1.0"?>
<svg xmlns="http://www.w3.org/2000/svg" height="512px" viewBox="0 0 512 512.00017" width="512px" class=""><g><path d="m119.464844 153.601562h68.269531c9.425781 0 17.066406-7.640624 17.066406-17.066406v-25.601562c0-4.714844-3.820312-8.535156-8.535156-8.535156-4.710937 0-8.53125 3.820312-8.53125 8.535156v25.601562h-68.269531v-68.269531h34.136718c4.710938 0 8.53125-3.820313 8.53125-8.53125 0-4.714844-3.820312-8.535156-8.53125-8.535156h-34.136718c-9.421875 0-17.066406 7.640625-17.066406 17.066406v68.269531c0 9.425782 7.644531 17.066406 17.066406 17.066406zm0 0" data-original="#000000" class="active-path" data-old_color="#000000" fill="#FFFFFF"/><path d="m142.566406 87.832031c-3.347656-3.230469-8.671875-3.1875-11.960937.105469-3.292969 3.292969-3.339844 8.613281-.105469 11.960938l17.066406 17.066406c3.332032 3.332031 8.734375 3.332031 12.066406 0l59.734376-59.730469c2.21875-2.144531 3.105468-5.316406 2.328124-8.300781-.78125-2.984375-3.113281-5.3125-6.097656-6.09375-2.980468-.78125-6.15625.109375-8.296875 2.328125l-53.699219 53.699219zm0 0" data-original="#000000" class="active-path" data-old_color="#000000" fill="#FFFFFF"/><path d="m230.398438 110.933594h17.066406c4.714844 0 8.535156-3.820313 8.535156-8.535156 0-4.710938-3.820312-8.53125-8.535156-8.53125h-17.066406c-4.710938 0-8.53125 3.820312-8.53125 8.53125 0 4.714843 3.820312 8.535156 8.53125 8.535156zm0 0" data-original="#000000" class="active-path" data-old_color="#000000" fill="#FFFFFF"/><path d="m281.601562 110.933594h59.730469c4.714844 0 8.535157-3.820313 8.535157-8.535156 0-4.710938-3.820313-8.53125-8.535157-8.53125h-59.730469c-4.714843 0-8.535156 3.820312-8.535156 8.53125 0 4.714843 3.820313 8.535156 8.535156 8.535156zm0 0" data-original="#000000" class="active-path" data-old_color="#000000" fill="#FFFFFF"/><path d="m341.332031 128h-110.933593c-4.710938 0-8.53125 3.820312-8.53125 8.535156 0 4.710938 3.820312 8.53125 8.53125 8.53125h110.933593c4.714844 0 8.535157-3.820312 8.535157-8.53125 0-4.714844-3.820313-8.535156-8.535157-8.535156zm0 0" data-original="#000000" class="active-path" data-old_color="#000000" fill="#FFFFFF"/><path d="m119.464844 290.132812h68.269531c9.425781 0 17.066406-7.640624 17.066406-17.066406v-25.601562c0-4.710938-3.820312-8.53125-8.535156-8.53125-4.710937 0-8.53125 3.820312-8.53125 8.53125v25.601562h-68.269531v-68.265625h34.136718c4.710938 0 8.53125-3.820312 8.53125-8.535156 0-4.710937-3.820312-8.53125-8.53125-8.53125h-34.136718c-9.421875 0-17.066406 7.640625-17.066406 17.066406v68.265625c0 9.425782 7.644531 17.066406 17.066406 17.066406zm0 0" data-original="#000000" class="active-path" data-old_color="#000000" fill="#FFFFFF"/><path d="m207.300781 181.699219-53.699219 53.703125-11.035156-11.035156c-3.347656-3.234376-8.671875-3.1875-11.960937.105468-3.292969 3.289063-3.339844 8.613282-.105469 11.960938l17.066406 17.066406c3.332032 3.332031 8.734375 3.332031 12.066406 0l59.734376-59.734375c3.234374-3.347656 3.1875-8.667969-.105469-11.960937-3.289063-3.292969-8.613281-3.339844-11.960938-.105469zm0 0" data-original="#000000" class="active-path" data-old_color="#000000" fill="#FFFFFF"/><path d="m119.464844 426.667969h68.269531c9.425781 0 17.066406-7.640625 17.066406-17.066407v-25.601562c0-4.710938-3.820312-8.535156-8.535156-8.535156-4.710937 0-8.53125 3.824218-8.53125 8.535156v25.601562h-68.269531v-68.269531h34.136718c4.710938 0 8.53125-3.820312 8.53125-8.53125 0-4.714843-3.820312-8.535156-8.53125-8.535156h-34.136718c-9.421875 0-17.066406 7.640625-17.066406 17.066406v68.269531c0 9.425782 7.644531 17.066407 17.066406 17.066407zm0 0" data-original="#000000" class="active-path" data-old_color="#000000" fill="#FFFFFF"/><path d="m207.300781 318.234375-53.699219 53.699219-11.035156-11.035156c-3.347656-3.230469-8.671875-3.1875-11.960937.105468-3.292969 3.292969-3.339844 8.613282-.105469 11.960938l17.066406 17.066406c3.332032 3.332031 8.734375 3.332031 12.066406 0l59.734376-59.730469c3.234374-3.347656 3.1875-8.671875-.105469-11.964843-3.289063-3.289063-8.613281-3.335938-11.960938-.101563zm0 0" data-original="#000000" class="active-path" data-old_color="#000000" fill="#FFFFFF"/><path d="m230.398438 247.464844h17.066406c4.714844 0 8.535156-3.820313 8.535156-8.53125 0-4.714844-3.820312-8.535156-8.535156-8.535156h-17.066406c-4.710938 0-8.53125 3.820312-8.53125 8.535156 0 4.710937 3.820312 8.53125 8.53125 8.53125zm0 0" data-original="#000000" class="active-path" data-old_color="#000000" fill="#FFFFFF"/><path d="m332.800781 230.398438h-51.199219c-4.714843 0-8.535156 3.820312-8.535156 8.535156 0 4.710937 3.820313 8.53125 8.535156 8.53125h51.199219c4.710938 0 8.53125-3.820313 8.53125-8.53125 0-4.714844-3.820312-8.535156-8.53125-8.535156zm0 0" data-original="#000000" class="active-path" data-old_color="#000000" fill="#FFFFFF"/><path d="m264.535156 264.535156h-34.136718c-4.710938 0-8.53125 3.820313-8.53125 8.53125 0 4.714844 3.820312 8.535156 8.53125 8.535156h34.136718c4.710938 0 8.53125-3.820312 8.53125-8.535156 0-4.710937-3.820312-8.53125-8.53125-8.53125zm0 0" data-original="#000000" class="active-path" data-old_color="#000000" fill="#FFFFFF"/><path d="m494.855469 320c-.144531-.257812-.390625-.402344-.5625-.632812-3.625-6.214844-7.761719-12.113282-12.371094-17.636719l5.339844-8.039063c9.160156-13.679687 5.519531-32.1875-8.132813-41.386718-4.890625-3.359376-10.6875-5.148438-16.621094-5.121094-10.015624-.03125-19.382812 4.957031-24.945312 13.289062l-3.726562 5.605469c-7.808594-3.308594-15.925782-5.828125-24.234376-7.519531v-19.625c-.023437-10.820313-6.859374-20.453125-17.066406-24.046875v-189.285157c0-14.140624-11.464844-25.601562-25.601562-25.601562h-341.332032c-14.140624 0-25.601562 11.460938-25.601562 25.601562v409.597657c0 14.140625 11.460938 25.601562 25.601562 25.601562h256.246094c10.1875 13.527344 22.949219 24.910157 37.546875 33.492188.230469.171875.375.417969.632813.5625.277344.136719.5625.257812.851562.359375 39.097656 22.378906 87.125 22.378906 126.226563 0 .289062-.101563.574219-.222656.851562-.359375.257813-.144531.402344-.390625.632813-.5625 18.707031-11.007813 34.328125-26.566407 45.414062-45.226563.296875-.328125.566406-.679687.808594-1.050781.113281-.203125.113281-.425781.214844-.636719 22.574218-39.226562 22.574218-87.496094 0-126.722656-.09375-.230469-.09375-.453125-.171875-.65625zm-25.324219-53.582031c2.835938 1.886719 4.800781 4.828125 5.464844 8.167969.664062 3.339843-.03125 6.808593-1.933594 9.632812l-3.328125 5.011719c-6.355469-5.757813-13.269531-10.867188-20.640625-15.25l2.679688-4.027344c4.046874-5.699219 11.835937-7.25 17.757812-3.535156zm-85.53125-10.417969c-2.882812 0-5.699219.246094-8.535156.433594v-17.5c0-4.714844 3.824218-8.535156 8.535156-8.535156 2.300781-.007813 4.5.9375 6.074219 2.613281 1.59375 1.554687 2.480469 3.695312 2.460937 5.921875v17.5c-2.835937-.1875-5.652344-.433594-8.535156-.433594zm-8.535156-230.398438v189.300782c-10.191406 3.605468-17.019532 13.222656-17.066406 24.03125v19.625c-13.269532 2.746094-26.015626 7.589844-37.757813 14.355468-.207031.101563-.4375.09375-.640625.210938-.203125.121094-.402344.394531-.632812.566406-18.851563 11.089844-34.566407 26.804688-45.660157 45.660156-.199219.199219-.386719.410157-.5625.632813-.113281.203125-.113281.425781-.214843.636719-21.832032 37.949218-22.605469 84.460937-2.046876 123.113281h-202.617187v-17.066406h8.535156c4.710938 0 8.53125-3.820313 8.53125-8.535157 0-4.710937-3.820312-8.53125-8.53125-8.53125h-8.535156v-17.066406h8.535156c4.710938 0 8.53125-3.824218 8.53125-8.535156s-3.820312-8.535156-8.53125-8.535156h-8.535156v-17.066406h8.535156c4.710938 0 8.53125-3.820313 8.53125-8.53125 0-4.714844-3.820312-8.535157-8.53125-8.535157h-8.535156v-17.066406h8.535156c4.710938 0 8.53125-3.820313 8.53125-8.53125 0-4.714844-3.820312-8.535156-8.53125-8.535156h-8.535156v-17.066407h8.535156c4.710938 0 8.53125-3.820312 8.53125-8.53125 0-4.714843-3.820312-8.535156-8.53125-8.535156h-8.535156v-17.066406h8.535156c4.710938 0 8.53125-3.820312 8.53125-8.535156 0-4.710938-3.820312-8.53125-8.53125-8.53125h-8.535156v-17.066406h8.535156c4.710938 0 8.53125-3.820313 8.53125-8.535157 0-4.710937-3.820312-8.53125-8.53125-8.53125h-8.535156v-17.066406h8.535156c4.710938 0 8.53125-3.820313 8.53125-8.535156 0-4.710938-3.820312-8.53125-8.53125-8.53125h-8.535156v-17.066407h8.535156c4.710938 0 8.53125-3.820312 8.53125-8.535156 0-4.710937-3.820312-8.53125-8.53125-8.53125h-8.535156v-17.070312h8.535156c4.710938 0 8.53125-3.820313 8.53125-8.53125 0-4.714844-3.820312-8.535156-8.53125-8.535156h-8.535156v-17.066407h8.535156c4.710938 0 8.53125-3.820312 8.53125-8.53125 0-4.714843-3.820312-8.535156-8.53125-8.535156h-8.535156v-17.066406h8.535156c4.710938 0 8.53125-3.820313 8.53125-8.53125 0-4.714844-3.820312-8.535157-8.53125-8.535157h-8.535156v-17.066406h298.667969c4.710937 0 8.53125 3.820313 8.53125 8.535156zm-358.398438 409.597657v-409.597657c0-4.714843 3.820313-8.535156 8.535156-8.535156h25.597657v17.066406h-8.53125c-4.714844 0-8.535157 3.820313-8.535157 8.535157 0 4.710937 3.820313 8.53125 8.535157 8.53125h8.53125v17.066406h-8.53125c-4.714844 0-8.535157 3.820313-8.535157 8.535156 0 4.710938 3.820313 8.53125 8.535157 8.53125h8.53125v17.066407h-8.53125c-4.714844 0-8.535157 3.820312-8.535157 8.535156 0 4.710937 3.820313 8.53125 8.535157 8.53125h8.53125v17.070312h-8.53125c-4.714844 0-8.535157 3.820313-8.535157 8.53125 0 4.714844 3.820313 8.535156 8.535157 8.535156h8.53125v17.066407h-8.53125c-4.714844 0-8.535157 3.820312-8.535157 8.53125 0 4.714843 3.820313 8.535156 8.535157 8.535156h8.53125v17.066406h-8.53125c-4.714844 0-8.535157 3.820313-8.535157 8.53125 0 4.714844 3.820313 8.535157 8.535157 8.535157h8.53125v17.066406h-8.53125c-4.714844 0-8.535157 3.820312-8.535157 8.53125 0 4.714844 3.820313 8.535156 8.535157 8.535156h8.53125v17.066406h-8.53125c-4.714844 0-8.535157 3.820313-8.535157 8.535156 0 4.710938 3.820313 8.53125 8.535157 8.53125h8.53125v17.066407h-8.53125c-4.714844 0-8.535157 3.820312-8.535157 8.535156 0 4.710937 3.820313 8.53125 8.535157 8.53125h8.53125v17.066406h-8.53125c-4.714844 0-8.535157 3.820313-8.535157 8.535157 0 4.710937 3.820313 8.53125 8.535157 8.53125h8.53125v17.066406h-8.53125c-4.714844 0-8.535157 3.824218-8.535157 8.535156s3.820313 8.535156 8.535157 8.535156h8.53125v17.066406h-8.53125c-4.714844 0-8.535157 3.820313-8.535157 8.53125 0 4.714844 3.820313 8.535157 8.535157 8.535157h8.53125v17.066406h-25.597657c-4.714843 0-8.535156-3.820313-8.535156-8.535156zm429.59375 40.261719-4.070312-7.050782c-1.511719-2.660156-4.335938-4.308594-7.398438-4.3125-3.0625-.007812-5.894531 1.625-7.417968 4.28125-1.527344 2.65625-1.511719 5.925782.035156 8.566406l4.03125 6.988282c-12.332032 5.941406-25.660156 9.523437-39.304688 10.566406v-8.101562c0-4.710938-3.820312-8.53125-8.535156-8.53125-4.710938 0-8.535156 3.820312-8.535156 8.53125v8.101562c-13.644532-1.042969-26.972656-4.625-39.300782-10.566406l4.027344-6.988282c1.546875-2.640624 1.5625-5.910156.035156-8.566406-1.523437-2.65625-4.355468-4.289062-7.417968-4.28125-3.0625.003906-5.886719 1.652344-7.398438 4.3125l-4.070312 7.050782c-11.277344-7.761719-21.039063-17.523438-28.800782-28.800782l7.050782-4.070312c4.046875-2.371094 5.417968-7.566406 3.074218-11.628906-2.347656-4.0625-7.53125-5.46875-11.609374-3.152344l-6.988282 4.027344c-5.941406-12.328126-9.523437-25.65625-10.566406-39.300782h8.101562c4.710938 0 8.53125-3.824218 8.53125-8.535156s-3.820312-8.535156-8.53125-8.535156h-8.101562c1.042969-13.644532 4.625-26.972656 10.566406-39.300782l6.988282 4.027344c2.640624 1.546875 5.910156 1.5625 8.566406.035156 2.65625-1.523437 4.289062-4.355468 4.28125-7.417968-.003906-3.0625-1.652344-5.886719-4.3125-7.398438l-7.050782-4.070312c7.761719-11.277344 17.523438-21.039063 28.800782-28.800782l4.070312 7.050782c2.371094 4.046875 7.566406 5.417968 11.628906 3.074218 4.0625-2.347656 5.46875-7.53125 3.152344-11.609374l-4.027344-6.988282c12.328126-5.941406 25.65625-9.523437 39.300782-10.566406v8.101562c0 4.710938 3.824218 8.53125 8.535156 8.53125 4.714844 0 8.535156-3.820312 8.535156-8.53125v-8.101562c13.644532 1.042969 26.972656 4.625 39.304688 10.566406l-4.03125 6.988282c-1.546875 2.640624-1.5625 5.910156-.035156 8.566406 1.523437 2.65625 4.355468 4.289062 7.417968 4.28125 3.0625-.003906 5.886719-1.652344 7.398438-4.3125l4.070312-7.050782c11.277344 7.761719 21.039063 17.523438 28.800782 28.800782l-7.050782 4.070312c-2.660156 1.511719-4.308594 4.335938-4.3125 7.398438-.007812 3.0625 1.625 5.894531 4.28125 7.417968 2.65625 1.527344 5.925782 1.511719 8.566406-.035156l6.988282-4.027344c5.941406 12.328126 9.523437 25.65625 10.566406 39.300782h-8.101562c-4.710938 0-8.53125 3.824218-8.53125 8.535156s3.820312 8.535156 8.53125 8.535156h8.101562c-1.042969 13.644532-4.625 26.972656-10.566406 39.300782l-6.988282-4.027344c-2.640624-1.546875-5.910156-1.5625-8.566406-.035156-2.65625 1.523437-4.289062 4.355468-4.28125 7.417968.003906 3.0625 1.652344 5.886719 4.3125 7.398438l7.050782 4.070312c-7.761719 11.277344-17.523438 21.039063-28.800782 28.800782zm0 0" data-original="#000000" class="active-path" data-old_color="#000000" fill="#FFFFFF"/><path d="m392.535156 380.46875v-64.734375c0-4.714844-3.820312-8.535156-8.535156-8.535156-4.710938 0-8.535156 3.820312-8.535156 8.535156v68.265625c.003906 2.261719.902344 4.433594 2.503906 6.03125l51.199219 51.203125c3.347656 3.234375 8.667969 3.1875 11.960937-.105469 3.292969-3.292968 3.339844-8.613281.105469-11.960937zm0 0" data-original="#000000" class="active-path" data-old_color="#000000" fill="#FFFFFF"/></g> </svg>
