<svg xmlns="http://www.w3.org/2000/svg" width="311" height="156.681" viewBox="0 0 311 156.681"><defs><style>.a{fill:#f73b62;font-size:19px;font-family:PTSans-Bold, PT Sans;font-weight:700;}.b{fill:#516267;font-size:15px;font-family:PTSans-Regular, PT Sans;font-weight:400;}.c{fill:#00487e;font-family:Circular-Medium, Circular;font-weight:500;}.d{opacity:0.5;}.e{fill:#93afb7;}</style></defs><g transform="translate(11)"><text class="a" transform="translate(-11)"><tspan x="28.163" y="17">Sem resultados para sua busca!</tspan><tspan class="b"><tspan x="8.941" y="42">Clique no </tspan><tspan class="c" y="42">FILTRO</tspan><tspan y="42" xml:space="preserve"> para pesquisar novamente!</tspan></tspan></text><g class="d" transform="translate(82 71.309)"><g transform="translate(36.71 35.864)"><path class="e" d="M41.284,45.35a5.908,5.908,0,0,0-5.366-5.369c-3.254-.164-5.369,2.439-6.182,5.369-.649,2.275,2.927,3.252,3.579.974.325-1.138.977-2.439,2.278-2.6.813,0,1.951.652,1.951,1.628C37.868,47.789,41.611,47.789,41.284,45.35Z" transform="translate(-29.658 -39.974)"/><g transform="translate(38.278)"><path class="e" d="M49.1,45.35a2.258,2.258,0,0,1,1.951-1.628c1.3,0,1.953,1.465,2.278,2.6.649,2.278,4.228,1.3,3.579-.974-.652-2.93-2.93-5.532-6.182-5.369a5.775,5.775,0,0,0-5.369,5.369C45.032,47.625,48.772,47.625,49.1,45.35Z" transform="translate(-45.337 -39.974)"/></g><g transform="translate(41.936 27.819) rotate(180)"><path class="e" d="M30.036.461A19.359,19.359,0,0,1,2.69.461,1.576,1.576,0,1,0,.461,2.69a22.349,22.349,0,0,0,15.9,6.584,22.343,22.343,0,0,0,15.9-6.584A1.576,1.576,0,1,0,30.036.461Z" transform="translate(0.61 0.59)"/><path class="e" d="M16.975,10.478A22.949,22.949,0,0,1,.642,3.711,2.181,2.181,0,0,1,.642.62a2.236,2.236,0,0,1,3.091,0,18.747,18.747,0,0,0,26.484,0,2.239,2.239,0,0,1,3.091,0,2.187,2.187,0,0,1,0,3.091A22.949,22.949,0,0,1,16.975,10.478ZM2.187,1.2A.966.966,0,0,0,1.5,2.849,21.733,21.733,0,0,0,16.975,9.257,21.738,21.738,0,0,0,32.446,2.849a.967.967,0,0,0,0-1.365.99.99,0,0,0-1.367,0h0a19.971,19.971,0,0,1-28.21,0A.953.953,0,0,0,2.187,1.2Z" transform="translate(0 0)"/></g></g><path class="e" d="M121.242,56.541A24.589,24.589,0,0,0,88.909,38.128,32.871,32.871,0,0,0,30.065,55.694a29.2,29.2,0,0,0,13.8,54.962h65.807a28.29,28.29,0,0,0,11.574-54.115Zm-11.582,48.922h-65.8A24.009,24.009,0,0,1,33.676,59.7l1.46-.684.037-1.6a27.686,27.686,0,0,1,50.675-14.66l1.218,1.824,2-.911a19.416,19.416,0,0,1,27.287,15.073l.2,1.509,1.426.557a23.1,23.1,0,0,1-8.32,44.662Z" transform="translate(-14.621 -25.284)"/></g></g></svg>