<svg xmlns="http://www.w3.org/2000/svg" width="34" height="34" viewBox="0 0 34 34"><defs><style>.a{fill:#fff;fill-rule:evenodd;}</style></defs><path class="a" d="M39,27.667A11.333,11.333,0,1,1,27.667,16.333,11.333,11.333,0,0,1,39,27.667Zm-2.267,0A9.067,9.067,0,1,1,27.667,18.6,9.067,9.067,0,0,1,36.733,27.667Zm-6.8-6.8A1.136,1.136,0,0,0,28.8,22v5.667H24.267a1.133,1.133,0,1,0,0,2.267h5.667A1.136,1.136,0,0,0,31.067,28.8V22A1.136,1.136,0,0,0,29.933,20.867Zm-17-2.267h3.7a13.568,13.568,0,0,0-1.321,2.267H12.933Zm0,6.8h1.191a13.43,13.43,0,0,1,.389-2.267h-1.58ZM27.667,5H7.267A2.274,2.274,0,0,0,5,7.267V29.933A2.272,2.272,0,0,0,7.267,32.2h7.59a13.607,13.607,0,0,1-.591-2.267h-7V7.267h20.4v6.8a13.661,13.661,0,0,1,2.267.2v-7A2.274,2.274,0,0,0,27.667,5ZM8.4,11.8h2.267V9.533H8.4Zm0,9.067h2.267V18.6H8.4Zm0-4.533h2.267V14.067H8.4Zm18.133-6.8h-13.6V11.8h13.6Zm-13.6,6.8h5.76a13.632,13.632,0,0,1,3.546-2.267H12.933ZM8.4,25.4h2.267V23.133H8.4Z" transform="translate(-5 -5)"/></svg>