<svg xmlns="http://www.w3.org/2000/svg" width="41.081" height="36.683" viewBox="0 0 41.081 36.683"><defs><style>.a{fill:#f9c002;stroke:rgba(0,0,0,0);}</style></defs><g transform="translate(-50.62 -322.644)"><path class="a" d="M-4774.934,2424.683h-32.131a3.887,3.887,0,0,1-3.4-1.965,3.881,3.881,0,0,1,0-3.928l16.065-27.827A3.889,3.889,0,0,1-4791,2389a3.891,3.891,0,0,1,3.4,1.963l16.065,27.827a3.886,3.886,0,0,1,0,3.928A3.885,3.885,0,0,1-4774.934,2424.683Zm-18.227-8.826v4h4v-4Zm0-16v12h4v-12Z" transform="translate(4862.16 -2065.857)"/></g></svg>