<?xml version="1.0"?>
<svg xmlns="http://www.w3.org/2000/svg" xmlns:xlink="http://www.w3.org/1999/xlink" version="1.1" id="Capa_1" x="0px" y="0px" viewBox="0 0 512 512" style="enable-background:new 0 0 512 512;" xml:space="preserve" width="512px" height="512px" class=""><g transform="matrix(-1 1.22465e-16 -1.22465e-16 -1 512 512)"><g>
	<g>
		<rect x="27.689" y="181" width="58.8" height="30" data-original="#000000" class="active-path" data-old_color="#000000" fill="#00487E"/>
	</g>
</g><g>
	<g>
		<rect x="27.689" y="301" width="58.8" height="30" data-original="#000000" class="active-path" data-old_color="#000000" fill="#00487E"/>
	</g>
</g><g>
	<g>
		<rect y="241" width="86.49" height="30" data-original="#000000" class="active-path" data-old_color="#000000" fill="#00487E"/>
	</g>
</g><g>
	<g>
		<path d="M314.244,58.245c-109.042,0-197.755,88.713-197.755,197.755s88.712,197.755,197.755,197.755S512,365.042,512,256    S423.287,58.245,314.244,58.245z M314.244,423.755c-92.5,0-167.755-75.255-167.755-167.755S221.744,88.245,314.244,88.245    C406.745,88.245,482,163.5,482,256S406.745,423.755,314.244,423.755z" data-original="#000000" class="active-path" data-old_color="#000000" fill="#00487E"/>
	</g>
</g><g>
	<g>
		<polygon points="323.93,263.454 323.93,166.557 293.93,166.557 293.93,279.313 371.238,331.996 388.133,307.205   " data-original="#000000" class="active-path" data-old_color="#000000" fill="#00487E"/>
	</g>
</g></g> </svg>
