<svg xmlns="http://www.w3.org/2000/svg" width="20" height="20" viewBox="0 0 20 20"><defs><style>.a{fill:#c467ed;}</style></defs><path class="a" d="M10,0A10,10,0,1,0,20,10,10,10,0,0,0,10,0Zm4.883,7.142a2.1,2.1,0,0,1-.455.942c-.067.078-.133.156-.206.227q-2.784,2.756-5.57,5.508a.536.536,0,0,1-.2.125q-1.422.461-2.846.913a.338.338,0,0,1-.48-.234.513.513,0,0,1,.022-.237c.271-.915.551-1.827.817-2.744a1.08,1.08,0,0,1,.289-.484Q8.812,8.6,11.364,6.043a2.822,2.822,0,0,1,1.475-.925h.384c.007.039.013.014.02.015a2.068,2.068,0,0,1,1.351.938,1.65,1.65,0,0,1,.289.714v.359Z"/></svg>