<svg xmlns="http://www.w3.org/2000/svg" width="25.174" height="25" viewBox="0 0 25.174 25"><defs><style>.a{fill:#00487e;stroke:#00487e;stroke-width:0.6px;}</style></defs><g transform="translate(0.302 0.3)"><path class="a" d="M41.211,24.954a3.287,3.287,0,1,0-3.271-3.287A3.287,3.287,0,0,0,41.211,24.954Zm0-4.947a1.66,1.66,0,1,1-1.643,1.66A1.66,1.66,0,0,1,41.211,20.007Z" transform="translate(-28.926 -14.751)"/><path class="a" d="M27.618,19.425a.814.814,0,0,0-.814-.67H21.722L22.807,17.3a7.756,7.756,0,0,0,1.584-5.134A7.6,7.6,0,0,0,16.919,5a7.6,7.6,0,0,0-7.471,7.165A7.756,7.756,0,0,0,11.021,17.3l1.085,1.456H7.156a.814.814,0,0,0-.814.67L4.716,28.442a.814.814,0,0,0,.814.957H28.445a.814.814,0,0,0,.814-.957ZM11.075,12.276a5.974,5.974,0,0,1,5.844-5.649,5.983,5.983,0,0,1,5.85,5.646,6.129,6.129,0,0,1-1.261,4.052l-4.589,6.14-4.589-6.14a6.129,6.129,0,0,1-1.261-4.052ZM6.5,27.781l1.334-7.39h5.494l2.937,3.919a.814.814,0,0,0,1.3,0l2.94-3.927h5.625l1.334,7.4Z" transform="translate(-4.703 -5)"/></g></svg>