<?xml version="1.0"?>
<svg xmlns="http://www.w3.org/2000/svg" viewBox="-15 0 512 512" width="512px" height="512px" class=""><g><path d="m426.191406 307.890625h-85.539062c35.859375-56.863281 54.019531-108.464844 54.019531-153.679687 0-85.03125-69.160156-154.210938-154.171875-154.210938s-154.171875 69.179688-154.171875 154.210938c0 45.214843 18.160156 96.820312 54.019531 153.679687h-85.539062l-54.808594 204.109375h481zm-309.871094-153.679687c0-68.492188 55.707032-124.210938 124.179688-124.210938s124.179688 55.71875 124.179688 124.210938c0 44.492187-22.234376 99.851562-64.292969 160.09375-23.050781 33.039062-46.710938 59.835937-59.890625 73.996093-13.160156-14.136719-36.785156-40.894531-59.882813-74-42.058593-60.238281-64.292969-115.597656-64.292969-160.089843zm-38.511718 183.679687h82.699218c27.472657 38.359375 52.644532 66.089844 79.992188 93.109375 26.472656-26.148438 51.222656-52.941406 79.996094-93.109375h82.699218l38.695313 144.109375h-402.78125zm0 0" data-original="#000000" class="active-path" data-old_color="#000000" fill="#00487E"/><path d="m240.5 242.476562c44.101562 0 79.980469-35.890624 79.980469-80 0-44.113281-35.878907-80-79.980469-80s-79.980469 35.886719-79.980469 80c0 44.109376 35.878907 80 79.980469 80zm0-130c27.5625 0 49.988281 22.429688 49.988281 50 0 27.570313-22.425781 50-49.988281 50s-49.988281-22.429687-49.988281-50c0-27.570312 22.425781-50 49.988281-50zm0 0" data-original="#000000" class="active-path" data-old_color="#000000" fill="#00487E"/></g> </svg>
