<svg xmlns="http://www.w3.org/2000/svg" width="40" height="40" viewBox="0 0 40 40"><defs><style>.a{fill:#c467ed;}</style></defs><g transform="translate(-212.998 -380)"><path class="a" d="M-13.8,1.621a20,20,0,0,0-20,20,20,20,0,0,0,20,20,20,20,0,0,0,20-20A20,20,0,0,0-13.8,1.621Zm9.548,15.208L-6.842,19.4a.768.768,0,0,1-.071.091L-17.3,29.792a.68.68,0,0,1-.479.16l-3.434.24a.687.687,0,0,1-.48-.241.492.492,0,0,1-.16-.559l.16-2.306h0l.006-.006.078-1.122a1.125,1.125,0,0,1,.16-.48l2.641-2.62c.007-.013.01-.027.018-.039L-8.487,12.6a.6.6,0,0,1,.84-.118.6.6,0,0,1,.118.118l3.275,3.275a.686.686,0,0,1,.239.479A.69.69,0,0,1-4.254,16.829Z" transform="translate(246.802 378.379)"/></g></svg>