<svg xmlns="http://www.w3.org/2000/svg" width="37.5" height="25" viewBox="0 0 37.5 25"><defs><style>.a,.b{fill:#00487e;}.a{stroke:#00487e;}</style></defs><g transform="translate(0.5 0.5)"><g transform="translate(1)"><path class="a" d="M15,14a1,1,0,0,1-.446-.1l-3-1A1,1,0,0,1,11,12V6a1,1,0,0,1,2,0v5.382l2.447.724A1,1,0,0,1,15,14ZM12,24A12,12,0,1,1,24,12,12.013,12.013,0,0,1,12,24ZM12,2A10,10,0,1,0,22,12,10.011,10.011,0,0,0,12,2Z" transform="translate(-1)"/></g><path class="b" d="M1.5,0h6a1.5,1.5,0,0,1,0,3h-6a1.5,1.5,0,0,1,0-3Z" transform="translate(28 9)"/><path class="b" d="M1.5,0h7a1.5,1.5,0,0,1,0,3h-7a1.5,1.5,0,0,1,0-3Z" transform="translate(27 15)"/><path class="b" d="M1.5,0h10a1.5,1.5,0,0,1,0,3H1.5a1.5,1.5,0,0,1,0-3Z" transform="translate(24 21)"/></g></svg>