<svg xmlns="http://www.w3.org/2000/svg" width="121" height="121" viewBox="0 0 121 121"><defs><style>.a{fill:#00aae0;}.b,.c{fill:#fff;}.c{font-size:11px;font-family:PTSans-Regular, PT Sans;letter-spacing:0.02em;}</style></defs><g transform="translate(-235 -923)"><circle class="a" cx="60.5" cy="60.5" r="60.5" transform="translate(235 923)"/><g transform="translate(268.889 943.614)"><path class="b" d="M37.358,22.116A6.358,6.358,0,1,0,31,15.758,6.355,6.355,0,0,0,37.358,22.116Zm0-10.708a4.35,4.35,0,1,1-4.35,4.35A4.342,4.342,0,0,1,37.358,11.408Z" transform="translate(-10.247 0)"/><path class="b" d="M16.6,63.32H37.619a.986.986,0,0,0,1-1V58.635A9.04,9.04,0,0,0,29.588,49.6H24.635A9.04,9.04,0,0,0,15.6,58.635v3.681A.986.986,0,0,0,16.6,63.32Zm1-4.651a7.027,7.027,0,0,1,7.027-7.027h4.953a7.027,7.027,0,0,1,7.027,7.027v2.677H17.608Z" transform="translate(0 -26.748)"/></g><g transform="translate(275.266 986)"><text class="c" transform="translate(20 11)"><tspan x="-32.373" y="0">SEM IMAGEM</tspan></text></g></g></svg>