<svg xmlns="http://www.w3.org/2000/svg" width="25" height="25" viewBox="0 0 25 25"><defs><style>.a{fill:#00487e;stroke:#00487e;}</style></defs><g transform="translate(-4.5 -4.5)"><path class="a" d="M17,5A12,12,0,1,0,29,17,12,12,0,0,0,17,5ZM10.387,25.149a8.992,8.992,0,0,1,13.224,0,10.472,10.472,0,0,1-13.224,0Zm14.32-1.027a10.491,10.491,0,0,0-15.411,0,10.5,10.5,0,1,1,15.411,0Z" transform="translate(0 0)"/><path class="a" d="M35.561,21.88a5.251,5.251,0,1,0,5.251,5.248A5.251,5.251,0,0,0,35.561,21.88Zm0,9a3.749,3.749,0,1,1,3.749-3.752A3.749,3.749,0,0,1,35.561,30.88Z" transform="translate(-18.561 -12.379)"/></g></svg>