<svg xmlns="http://www.w3.org/2000/svg" width="17" height="9.164" viewBox="0 0 17 9.164"><g transform="translate(0 -118)"><g transform="translate(0 118)"><path d="M15.852,119.372A4.073,4.073,0,0,0,12.75,118a4.473,4.473,0,0,0-3.428,1.827,11.025,11.025,0,0,1,.707,1.265,3.513,3.513,0,0,1,2.721-1.764,3.273,3.273,0,0,1,0,6.508c-2.42,0-3.609-3.431-3.62-3.465l0-.01C9.064,122.184,7.554,118,4.25,118a4.073,4.073,0,0,0-3.1,1.372,5.062,5.062,0,0,0,0,6.42,4.073,4.073,0,0,0,3.1,1.372,4.451,4.451,0,0,0,3.428-1.791,10.572,10.572,0,0,1-.7-1.271,3.471,3.471,0,0,1-2.724,1.735,3.273,3.273,0,0,1,0-6.508c2.336,0,3.583,3.362,3.623,3.472.088.26,1.536,4.364,4.877,4.364a4.073,4.073,0,0,0,3.1-1.372,5.062,5.062,0,0,0,0-6.42Z" transform="translate(0 -118)"/></g></g></svg>