<svg xmlns="http://www.w3.org/2000/svg" width="123.362" height="85.372" viewBox="0 0 123.362 85.372">
  <g id="Grupo_2500" data-name="Grupo 2500" opacity="0.5">
    <g id="nuvem">
      <g id="Grupo_954" data-name="Grupo 954" transform="translate(36.71 35.864)">
        <g id="Grupo_952" data-name="Grupo 952">
          <g id="Grupo_950" data-name="Grupo 950">
            <path id="Caminho_325" data-name="Caminho 325" d="M41.284,45.35a5.908,5.908,0,0,0-5.366-5.369c-3.254-.164-5.369,2.439-6.182,5.369-.649,2.275,2.927,3.252,3.579.974.325-1.138.977-2.439,2.278-2.6.813,0,1.951.652,1.951,1.628C37.868,47.789,41.611,47.789,41.284,45.35Z" transform="translate(-29.658 -39.974)" fill="#93afb7"/>
          </g>
          <g id="Grupo_951" data-name="Grupo 951" transform="translate(38.278)">
            <path id="Caminho_326" data-name="Caminho 326" d="M49.1,45.35a2.258,2.258,0,0,1,1.951-1.628c1.3,0,1.953,1.465,2.278,2.6.649,2.278,4.228,1.3,3.579-.974-.652-2.93-2.93-5.532-6.182-5.369a5.775,5.775,0,0,0-5.369,5.369C45.032,47.625,48.772,47.625,49.1,45.35Z" transform="translate(-45.337 -39.974)" fill="#93afb7"/>
          </g>
        </g>
        <g id="Grupo_953" data-name="Grupo 953" transform="translate(41.936 27.819) rotate(180)">
          <path id="Caminho_327" data-name="Caminho 327" d="M30.036.461A19.359,19.359,0,0,1,2.69.461,1.576,1.576,0,1,0,.461,2.69a22.349,22.349,0,0,0,15.9,6.584,22.343,22.343,0,0,0,15.9-6.584A1.576,1.576,0,1,0,30.036.461Z" transform="translate(0.61 0.59)" fill="#93afb7"/>
          <path id="Caminho_328" data-name="Caminho 328" d="M16.975,10.478A22.949,22.949,0,0,1,.642,3.711,2.181,2.181,0,0,1,.642.62a2.236,2.236,0,0,1,3.091,0,18.747,18.747,0,0,0,26.484,0,2.239,2.239,0,0,1,3.091,0,2.187,2.187,0,0,1,0,3.091A22.949,22.949,0,0,1,16.975,10.478ZM2.187,1.2A.966.966,0,0,0,1.5,2.849,21.733,21.733,0,0,0,16.975,9.257,21.738,21.738,0,0,0,32.446,2.849a.967.967,0,0,0,0-1.365.99.99,0,0,0-1.367,0h0a19.971,19.971,0,0,1-28.21,0A.953.953,0,0,0,2.187,1.2Z" transform="translate(0 0)" fill="#93afb7"/>
        </g>
      </g>
      <g id="Grupo_956" data-name="Grupo 956">
        <g id="Grupo_955" data-name="Grupo 955">
          <path id="Caminho_336" data-name="Caminho 336" d="M121.242,56.541A24.589,24.589,0,0,0,88.909,38.128,32.871,32.871,0,0,0,30.065,55.694a29.2,29.2,0,0,0,13.8,54.962h65.807a28.29,28.29,0,0,0,11.574-54.115Zm-11.582,48.922h-65.8A24.009,24.009,0,0,1,33.676,59.7l1.46-.684.037-1.6a27.686,27.686,0,0,1,50.675-14.66l1.218,1.824,2-.911a19.416,19.416,0,0,1,27.287,15.073l.2,1.509,1.426.557a23.1,23.1,0,0,1-8.32,44.662Z" transform="translate(-14.621 -25.284)" fill="#93afb7"/>
        </g>
      </g>
    </g>
  </g>
</svg>
