<svg xmlns="http://www.w3.org/2000/svg" width="55.839" height="36.098" viewBox="0 0 55.839 36.098"><defs><style>.a{fill:none;stroke:#93afb7;stroke-width:2px;opacity:0.5;}</style></defs><path class="a" d="M48.852,235.881c-.207.047-.383.089-.561.126A9.873,9.873,0,0,0,50.6,255.529q16.313.013,32.625-.006a12,12,0,0,0,2.393-.2,10.755,10.755,0,0,0-2.945-21.273c-.373.036-.479-.1-.589-.4a8.932,8.932,0,0,0-10.907-5.567.427.427,0,0,1-.6-.26,11.581,11.581,0,0,0-11.882-6.291,11.705,11.705,0,0,0-10.032,9.753A12.786,12.786,0,0,0,48.852,235.881Z" transform="translate(-39.457 -220.437)"/></svg>