<?xml version="1.0" encoding="utf-8"?>
<!-- Generator: Adobe Illustrator 23.0.4, SVG Export Plug-In . SVG Version: 6.00 Build 0)  -->
<svg version="1.1" id="Camada_1" xmlns="http://www.w3.org/2000/svg" xmlns:xlink="http://www.w3.org/1999/xlink" x="0px" y="0px"
	 viewBox="0 0 1109.4 858.8" style="enable-background:new 0 0 1109.4 858.8;" xml:space="preserve">
<style type="text/css">
	.st0{fill:#00487D;}
	.st1{fill:#0AABDF;}
	.st2{fill:#019CD8;}
	.st3{font-family:'Circular-Bold';}
	.st4{font-size:11px;}
	.st5{fill:#2E2E2D;}
	.st6{fill:#805AA0;}
	.st7{fill:#183A66;}
	.st8{font-size:11.063px;}
	.st9{fill:#51AB77;}
	.st10{fill:#DF2652;}
	.st11{fill:#F07E1A;}
	.st12{fill:none;stroke:#819FA8;}
	.st13{fill:#819FA8;}
	.st14{fill:none;stroke:#757474;stroke-miterlimit:10;stroke-dasharray:12;}
</style>
<g id="Grupo_2648_1_" transform="translate(238 4027)">
	<g id="Grupo_1646-3_1_" transform="translate(481 478)">
	</g>
</g>
<rect x="-190.8" y="56.7" class="st0" width="97.9" height="106.9"/>
<rect x="-190.8" y="193.9" class="st1" width="97.9" height="106.9"/>
<g id="Grupo_2679" transform="translate(-221.5 -4316)">
	<g id="Grupo_2678" transform="translate(222 4316)">
		<g id="Grupo_1646-5" transform="translate(44.802 512.08)">
			<g id="Grupo_2640">
				<g id="CANCELAR_Funcionário_pode_pedir_o_cancelamento_do_sobreaviso">
					<text transform="matrix(1 0 0 1 138.5572 61.8708)" class="st2 st3 st4">PEDE O CANCELAMENTO</text>
					<text transform="matrix(1 0 0 1 75.5152 78.4918)" class="st2 st3 st4">Nos detalhes do sobreaviso, peça o cancelamento</text>
					<text transform="matrix(1 0 0 1 132.0442 91.4918)" class="st2 st3 st4">do sobreaviso ao seu gestor</text>
				</g>
			</g>
		</g>
		<g id="Grupo_1646-5-2" transform="translate(53.616 591.224)">
			<g id="Grupo_2641">
				<g id="CANCELAR_Funcionário_pode_pedir_o_cancelamento_do_sobreaviso-2">
					<text transform="matrix(1 0 0 1 75.6912 61.8708)" class="st2 st3 st4">VERIFICA APROVAÇÃO DO CANCELAMENTO</text>
					<text transform="matrix(1 0 0 1 101.8832 78.4918)" class="st2 st3 st4">Nesse caso o status do sobreaviso se </text>
					<text transform="matrix(1 0 0 1 134.5312 91.4918)" class="st2 st3 st4">mantém como aprovado</text>
				</g>
			</g>
		</g>
		<g id="Grupo_1646-5-3" transform="translate(34.672 677.729)">
			<g id="Grupo_2642">
				<g id="CANCELAR_Funcionário_pode_pedir_o_cancelamento_do_sobreaviso-3">
					<text transform="matrix(1 0 0 1 75.6912 61.8708)" class="st2 st3 st4">PODE AGUARDAR OU INICIAR OUTRA SOLICITAÇÃO</text>
					<text transform="matrix(1 0 0 1 104.1902 78.4918)" class="st2 st3 st4">Sua solicitação foi cancelada com sucesso, </text>
					<text transform="matrix(1 0 0 1 148.4432 91.4918)" class="st2 st3 st4">envie outra se for preciso!</text>
				</g>
			</g>
		</g>
		<g id="Grupo_2547" transform="translate(0 148.491)">
			<g id="Grupo_1646-5-4">
				<g id="CANCELAR_Funcionário_pode_pedir_o_cancelamento_do_sobreaviso-4">
					<text transform="matrix(1 0 0 1 75.6912 61.8707)" class="st5 st3 st4">NOVO SOBREAVISO</text>
				</g>
			</g>
		</g>
		<g id="Grupo_2547-2" transform="translate(0 460.246)">
			<g id="Grupo_2643">
				<g id="Grupo_1646-5-5">
					<g id="CANCELAR_Funcionário_pode_pedir_o_cancelamento_do_sobreaviso-5">
						<text transform="matrix(1 0 0 1 75.6912 61.8708)" class="st5 st3 st4">CANCELAMENTO DO SOBREAVISO</text>
					</g>
				</g>
			</g>
		</g>
		<g id="Grupo_2655" transform="translate(356.156 529.373)">
			<g id="Grupo_2644" transform="translate(0)">
				<g id="Grupo_2653-5">
					<g id="Grupo_1646-13">
						<g id="PARA_CANCELAR">
							<text transform="matrix(1 0 0 1 75.6912 61.8708)" class="st6 st3 st4">ALERTA PARA CANCELAR</text>
						</g>
					</g>
				</g>
			</g>
		</g>
		<g id="Grupo_2648" transform="translate(735.343 112.134)">
			<g id="Grupo_1646-3">
				<g id="GESTOR">
					<text transform="matrix(1 0 0 1 75.6912 61.8707)" class="st7 st3 st4">GESTOR</text>
				</g>
			</g>
		</g>
		<g id="Grupo_2646" transform="translate(710.658 0)">
			<g id="Grupo_1704">
				<g id="Grupo_242">
					<path id="Subtração_1" class="st7" d="M125,149.4c-27.2,0-49.3-22.1-49.3-49.3S97.8,50.9,125,50.9s49.3,22.1,49.3,49.3
						c0,13.1-5.2,25.6-14.4,34.8l0,0C150.6,144.2,138,149.4,125,149.4z M125,56.7c-24,0-43.5,19.5-43.5,43.5
						c0,24,19.5,43.5,43.5,43.5c24,0,43.5-19.5,43.5-43.5c0-11.5-4.6-22.6-12.7-30.7l0,0C147.6,61.2,136.5,56.6,125,56.7z"/>
				</g>
			</g>
			<g id="Grupo_2645" transform="translate(29.425 23.487)">
				<path id="Caminho_1544" class="st7" d="M95.5,102.4c-5,0-10.1,0-15.1,0c-3.2,0-4.7-1.5-4.7-4.7c0-4.2,0-8.4,0-12.6
					c0-4.2,2.2-7.6,5.9-8.8c1.9-0.5,3.8-0.9,5.7-1.1c0.8-0.1,1,0.6,1.3,1.2c1.6,4.3,3.1,8.5,4.7,12.8c0.4,1,0.7,2.1,1.1,3
					c0.2,0.4,0.7,1,1.1,0.9c0.5-0.1,0.9-0.5,1.1-1c1.9-5.2,3.8-10.3,5.7-15.5c0.6-1.5,0.6-1.6,2.2-1.3c1.2,0.2,2.4,0.4,3.6,0.6
					c4.1,0.7,7.1,4.2,7.2,8.4c0.1,4.8,0.1,9.6,0,14.4c0,2.3-1.8,3.7-4.3,3.7C105.8,102.4,100.6,102.4,95.5,102.4z"/>
				<path id="Caminho_1545" class="st7" d="M95.5,71.2c-5.6,0-10.1-4.5-10.2-10.1c0-5.6,4.5-10.2,10.2-10.2
					c5.6,0,10.2,4.5,10.2,10.2c0,0,0,0,0,0C105.7,66.7,101.1,71.2,95.5,71.2z"/>
				<path id="Caminho_1546" class="st7" d="M95.6,74.7c0.8,0.3,1.7,0.4,2.2,1c0.6,0.8-0.2,1.6-0.7,2.2c-1,1.1-0.5,2.4-0.3,3.5
					c0.4,2,0.2,4-0.8,5.8c-0.2,0.3-0.4,0.5-0.6,0.7c-0.2-0.2-0.4-0.5-0.5-0.7c-1.3-2.2-1-4.6-0.6-7c0.2-0.9,0-1.8-0.6-2.5
					c-0.2-0.3-0.4-0.6-0.6-0.9c-0.4-0.6-0.2-1.3,0.3-1.7c0.2-0.1,0.4-0.2,0.7-0.2c0.5,0,0.9,0,1.4,0L95.6,74.7z"/>
			</g>
		</g>
		<g id="Grupo_2650" transform="translate(154.058 2.495)">
			<g id="Grupo_2649">
				<g id="Grupo_2650-2" transform="translate(9.942 109.24)">
					<g id="Grupo_2649-2">
						<g id="Grupo_1646-8">
							<g id="FUNCIONÁRIO">
								<text transform="matrix(1 0 0 1 75.6912 61.8707)" class="st2 st3 st4">FUNCIONÁRIO</text>
							</g>
						</g>
					</g>
				</g>
				<g id="Grupo_2648-2" transform="translate(-0.058)">
					<g id="Grupo_1704-2">
						<g id="Grupo_242-2">
							<path id="Subtração_1-2" class="st2" d="M125,149.4c-27.2,0-49.3-22.1-49.3-49.3c0-27.2,22.1-49.3,49.3-49.3
								s49.3,22.1,49.3,49.3c0,13.1-5.2,25.6-14.4,34.8l0,0C150.6,144.2,138,149.4,125,149.4z M125,56.7c-24,0-43.5,19.5-43.5,43.5
								s19.5,43.5,43.5,43.5c24,0,43.5-19.5,43.5-43.5c0-11.5-4.6-22.6-12.7-30.7l0,0C147.6,61.2,136.5,56.6,125,56.7z"/>
						</g>
					</g>
					<g id="Grupo_2647" transform="translate(19.382 22.419)">
						<path id="Caminho_1547" class="st2" d="M85.3,65.9c0.9-1,1.8-1.9,2.6-2.9c0.5-0.6,1.3-0.9,2.1-0.6c1.7,0.5,3.3,1.2,4.1,2.8
							c0.4,0.7,0.7,1.6,0.7,2.4c0.1,3,0.1,6,0,9c0,0.4-0.2,0.8-0.4,1.1c-0.8,1.3-1.6,2.5-2.4,3.7c-0.2,0.3-0.3,0.7-0.3,1.1
							c0,3.5,0,7.1,0,10.6c0,1.6-0.5,2.1-2.1,2.1c-2.9,0-5.8,0-8.7,0c-1.4,0-2-0.5-2-2c0-3.6,0-7.1,0-10.7c0-0.4-0.1-0.7-0.3-1
							c-0.8-1.3-1.7-2.5-2.4-3.8c-0.3-0.4-0.4-0.9-0.4-1.4c0-2.8,0-5.5,0-8.3c0-2.5,1.6-4.8,4-5.5c1.3-0.7,2.9-0.3,3.6,1
							C83.9,64.5,84.6,65.2,85.3,65.9z"/>
						<path id="Caminho_1548" class="st2" d="M125.9,66.3c0.8-1,1.6-1.9,2.3-2.9c0.9-1.2,1.2-1.2,2.7-0.8c1.6,0.3,3,1.3,3.8,2.7
							c0.5,0.9,0.8,1.8,0.8,2.8c0,2.8,0,5.6,0,8.4c0,0.5-0.2,0.9-0.4,1.3c-0.8,1.3-1.7,2.5-2.5,3.8c-0.2,0.3-0.3,0.6-0.3,1
							c0,3.5,0,7.1,0,10.6c0,1.6-0.5,2.1-2.1,2.1c-2.9,0-5.8,0-8.8,0c-1.4,0-2-0.6-2-2c0-3.6,0-7.1,0-10.7c0-0.4-0.1-0.7-0.3-1
							c-0.8-1.2-1.6-2.4-2.4-3.7c-0.3-0.5-0.4-1-0.5-1.5c0-2.7,0-5.4,0-8.1c-0.1-2.6,1.6-5,4.2-5.6c0.2-0.1,0.4-0.1,0.7-0.2
							c0.8-0.4,1.8-0.1,2.2,0.7C124.2,64.2,125,65.2,125.9,66.3z"/>
						<path id="Caminho_1549" class="st2" d="M105.5,75.6c0.9-1.1,1.7-2.1,2.5-3.2c0.8-1,1.1-1.1,2.3-0.7c1.7,0.3,3.1,1.3,4,2.8
							c0.5,0.9,0.8,2,0.8,3c0,2.7,0,5.4,0,8.1c0,0.5-0.2,1-0.4,1.4c-0.8,1.3-1.6,2.5-2.4,3.7c-0.2,0.4-0.4,0.8-0.4,1.2
							c0,3.6,0,7.1,0,10.6c0,1.4-0.5,1.9-1.9,1.9c-3,0-5.9,0-8.9,0c-1.4,0-1.9-0.5-1.9-2c0-3.6,0-7.2,0-10.8c0-0.3-0.1-0.6-0.3-0.9
							c-0.8-1.3-1.7-2.6-2.5-3.9c-0.2-0.3-0.4-0.7-0.4-1.2c0-3-0.1-6,0-8.9c0-2.3,1.6-4.3,3.8-4.9c2.2-0.8,2.3-0.7,3.7,1.1
							C104.2,73.9,104.8,74.8,105.5,75.6z"/>
						<path id="Caminho_1550" class="st2" d="M90.8,56.4c0,3.1-2.5,5.5-5.6,5.5c-3.1,0-5.5-2.5-5.5-5.6c0-3.1,2.5-5.5,5.6-5.5
							c0,0,0,0,0,0C88.4,50.9,90.8,53.4,90.8,56.4z"/>
						<path id="Caminho_1551" class="st2" d="M120.3,56.4c0-3.1,2.5-5.5,5.5-5.5s5.5,2.5,5.5,5.5c0,3.1-2.5,5.5-5.5,5.5c0,0,0,0,0,0
							C122.8,61.9,120.4,59.5,120.3,56.4z"/>
						<path id="Caminho_1552" class="st2" d="M100,65.6c0-3.1,2.5-5.5,5.5-5.5s5.5,2.5,5.5,5.5c0,3.1-2.5,5.5-5.5,5.5
							C102.5,71.2,100,68.7,100,65.6z"/>
					</g>
				</g>
			</g>
		</g>
		<g id="Grupo_1854" transform="translate(100.092 200.635)">
			<g id="Grupo_2651">
				<g id="Grupo_1646-4">
					<g id="LANÇAR_SOBREAVISO_A_partir_do_botão_Novo_Sobreaviso_">
						<text transform="matrix(1 0 0 1 104.4932 61.8708)" class="st2 st3 st4">LANÇA UM SOBREAVISO</text>
						<text transform="matrix(1 0 0 1 76.0112 79.0148)" class="st2 st3 st4">A partir do botão “Novo Sobreaviso”</text>
					</g>
				</g>
			</g>
		</g>
		<g id="Grupo_2547-3" transform="translate(75.842 343.365)">
			<g id="Grupo_2652">
				<g id="Grupo_1646-5-6">
					<g id="CANCELAR_Funcionário_pode_pedir_o_cancelamento_do_sobreaviso-6">
						<text transform="matrix(1 0 0 1 116.1072 61.8708)" class="st2 st3 st4">AGUARDA DATA ESTIPULADA</text>
						<text transform="matrix(1 0 0 1 76.0922 78.4918)" class="st2 st3 st4">Se seu sobreaviso for oficialmente aprovado, </text>
						<text transform="matrix(1 0 0 1 90.3322 91.4918)" class="st2 st3 st4">espere pela data e horários estipulados!</text>
					</g>
				</g>
			</g>
		</g>
		<g id="Grupo_2547-4" transform="translate(79.005 268.421)">
			<g id="Grupo_2653">
				<g id="Grupo_1646-5-7">
					<g id="CANCELAR_Funcionário_pode_pedir_o_cancelamento_do_sobreaviso-7">
						<text transform="matrix(1 0 0 1 81.6212 61.8708)" class="st2 st3 st4">VERIFICA APROVAÇÃO DO SOBREAVISO</text>
						<text transform="matrix(1 0 0 1 84.4562 78.4918)" class="st2 st3 st4">Se for reprovado, entre em contato com </text>
						<text transform="matrix(1 0 0 1 75.3592 91.4918)" class="st2 st3 st4">seu gestor ou envie a solicitação novamente</text>
					</g>
				</g>
			</g>
		</g>
		<g id="Grupo_2520" transform="translate(618.729 200.034)">
			<g id="Grupo_1646-6">
				<g id="APROVAR_ou_REPROVAR_Gestor_pode_decidir_o_status_de_um_novo_lançamento">
					<text transform="matrix(1 0 0 1 202.3972 61.8708)" class="st7 st3 st8">  </text>
					<g id="Grupo_2654">
						<text transform="matrix(1 0 0 1 101.8572 61.8708)" class="st7 st3 st8">PODE APROVAR OU REPROVAR OS PEDIDOS</text>
						<text transform="matrix(1 0 0 1 82.9872 76.7648)" class="st7 st3 st8">Na aba “PARA APROVAR”, pode aprovar ou reprovar</text>
						<text transform="matrix(1 0 0 1 112.7682 90.0408)" class="st7 st3 st8">os pedidos individualmente ou em grupo</text>
					</g>
				</g>
			</g>
		</g>
		<g id="Grupo_2520-2" transform="translate(618.729 512.007)">
			<g id="Grupo_1646-6-2">
				<g id="APROVAR_ou_REPROVAR_Gestor_pode_decidir_o_status_de_um_novo_lançamento-2">
					<text transform="matrix(1 0 0 1 205.1432 77.5158)" class="st7 st3 st8">  </text>
					<g id="Grupo_2655-2">
						<text transform="matrix(1 0 0 1 140.2382 61.8708)" class="st7 st3 st8">MANTÉM O SOBREAVISO OU </text>
						<text transform="matrix(1 0 0 1 140.1502 75.1468)" class="st7 st3 st8">APROVA O CANCELAMENTO</text>
						<text transform="matrix(1 0 0 1 85.2382 92.4098)" class="st7 st3 st8">Na aba “PARA CANCELAR”, visualize os pedidos de </text>
						<text transform="matrix(1 0 0 1 141.6762 105.6858)" class="st7 st3 st8">cancelamento de sobreavisos</text>
					</g>
				</g>
			</g>
		</g>
		<g id="Grupo_2520-3" transform="translate(642.099 345.326)">
			<g id="Grupo_1646-6-3">
				<g id="APROVAR_ou_REPROVAR_Gestor_pode_decidir_o_status_de_um_novo_lançamento-3">
					<text transform="matrix(1 0 0 1 184.6292 61.8708)" class="st7 st3 st4">  </text>
					<g id="Grupo_2656" transform="translate(0 0)">
						<text transform="matrix(1 0 0 1 75.6912 61.8708)" class="st7 st3 st4">LANÇA SOBREAVISO PARA FUNCIONÁRIO</text>
						<text transform="matrix(1 0 0 1 97.2452 76.7638)" class="st7 st3 st4">Nesse caso o sobreaviso é aprovado</text>
						<text transform="matrix(1 0 0 1 142.5702 89.7638)" class="st7 st3 st4">automaticamente</text>
					</g>
				</g>
			</g>
		</g>
		<g id="Grupo_2520-4" transform="translate(642.099 662.226)">
			<g id="Grupo_1646-6-4">
				<g id="APROVAR_ou_REPROVAR_Gestor_pode_decidir_o_status_de_um_novo_lançamento-4">
					<text transform="matrix(1 0 0 1 184.6292 61.8708)" class="st7 st3 st4">  </text>
					<g id="Grupo_2657" transform="translate(0 0)">
						<text transform="matrix(1 0 0 1 75.6912 61.8708)" class="st7 st3 st4">CANCELA SOBREAVISO DO FUNCIONÁRIO</text>
						<text transform="matrix(1 0 0 1 94.9972 76.7638)" class="st7 st3 st4">Nesse caso o sobreaviso é cancelado</text>
						<text transform="matrix(1 0 0 1 142.4612 89.7638)" class="st7 st3 st4">automaticamente</text>
					</g>
				</g>
			</g>
		</g>
		<g id="Grupo_2653-2" transform="translate(356.156 366.025)">
			<g id="Grupo_1646-9">
				<g id="APROVADO">
					<text transform="matrix(1 0 0 1 75.6912 61.8708)" class="st9 st3 st4">ALERTA DE APROVAÇÃO</text>
				</g>
			</g>
		</g>
		<g id="Grupo_2659" transform="translate(356.156 270.233)">
			<g id="Grupo_2653-2-2">
				<g id="Grupo_1646-10">
					<g id="REPROVADO">
						<text transform="matrix(1 0 0 1 75.6912 61.8708)" class="st10 st3 st4">ALERTA DE REPROVAÇÃO</text>
					</g>
				</g>
			</g>
		</g>
		<g id="Grupo_2653-4" transform="translate(356.156 204.571)">
			<g id="Grupo_1646-12" transform="translate(0)">
				<g id="PARA_APROVAR">
					<text transform="matrix(1 0 0 1 75.6912 61.8708)" class="st11 st3 st4">ALERTA PARA APROVAR</text>
				</g>
			</g>
		</g>
		<line id="Linha_187" class="st12" x1="414" y1="273.1" x2="673.9" y2="273.1"/>
		<circle id="Elipse_51" class="st13" cx="414.2" cy="273.1" r="2.7"/>
		<g id="Grupo_2665" transform="translate(589.442 213.523)">
			<line id="Linha_194" class="st12" x1="84.4" y1="59.6" x2="75.7" y2="50.9"/>
			<line id="Linha_195" class="st12" x1="84.4" y1="59.6" x2="75.7" y2="68.4"/>
		</g>
		<g id="Grupo_2659-2" transform="translate(412.06 225.226)">
			<g id="Grupo_2654-4" transform="translate(0 0.398)">
				<path id="Caminho_1336-4" class="st11" d="M85.5,51.7v5.8c0,0,0,0,0,0c-0.1,0.5-0.5,0.8-0.9,0.8h-7.9c-0.5,0-0.9-0.4-1-0.9
					c0,0,0,0,0,0c0,0,0,0,0-0.1v-5.5c0-0.1,0-0.2,0-0.3c0.1-0.4,0.5-0.7,0.9-0.7h7.2c0.3,0,0.6,0,0.8,0c0.4,0,0.7,0.3,0.9,0.6
					C85.5,51.6,85.5,51.6,85.5,51.7z M76.3,52.2v5.1c0,0.2,0.1,0.3,0.3,0.4c0,0,0.1,0,0.1,0h7.9c0.2,0,0.3-0.1,0.4-0.3
					c0,0,0-0.1,0-0.1v-5c0,0,0-0.1,0-0.1c0,0-0.1,0-0.1,0.1l-4,3.5c-0.1,0.1-0.3,0.1-0.4,0c0,0,0,0,0,0c0,0,0,0,0,0l-3.4-3
					L76.3,52.2z M84.7,51.5c-0.1,0-8.1,0-8.2,0l4.1,3.6L84.7,51.5z"/>
			</g>
			<g id="Grupo_2497" transform="translate(15.593)">
				<g id="Grupo_2658">
					<path id="Caminho_1344" class="st11" d="M79.4,59.2c-0.1,0-0.1,0-0.2,0c-0.5-0.1-0.8-0.5-0.9-0.9c0-0.1,0-0.1-0.1-0.1
						c-0.5,0-1,0-1.5,0c-0.3,0-0.6-0.2-0.6-0.6c0-0.2,0.1-0.4,0.2-0.5c0.5-0.5,0.8-1.1,0.8-1.8c0-0.4,0-0.7,0-1.1
						c0-0.8,0.5-1.6,1.3-2c0.2-0.1,0.5-0.2,0.8-0.3l0.1,0v-0.4c0-0.1,0-0.3,0-0.4c0-0.1,0.1-0.3,0.3-0.2c0.1,0,0.2,0.1,0.2,0.2
						c0,0,0,0.1,0,0.1v0.7c0.1,0,0.2,0,0.3,0.1c1,0.2,1.8,1.1,1.8,2.1c0,0.4,0,0.7,0,1.1c0,0.7,0.3,1.5,0.8,1.9
						c0.3,0.2,0.3,0.6,0.1,0.8c-0.1,0.1-0.2,0.2-0.3,0.2c-0.1,0-0.1,0-0.2,0c-0.5,0-1,0-1.5,0h-0.1c0,0,0,0.1,0,0.1
						c-0.1,0.5-0.6,0.8-1,0.9l-0.1,0L79.4,59.2z M79.5,57.6c0.9,0,1.9,0,2.8,0c0,0,0.1,0,0.1-0.1c0,0,0-0.1,0-0.1
						c-0.6-0.6-1-1.4-1-2.2c0-0.3,0-0.6,0-0.9c0-0.1,0-0.3,0-0.4c-0.2-1-1.2-1.7-2.3-1.5c-0.8,0.2-1.4,0.9-1.5,1.7
						c0,0.4,0,0.7,0,1.1c0,0.8-0.3,1.5-0.9,2.1c0,0-0.1,0.1-0.1,0.1c0,0,0,0.1,0,0.1c0,0,0,0,0.1,0.1c0,0,0,0,0.1,0L79.5,57.6z
						 M80.2,58.1h-1.4c0.1,0.4,0.6,0.6,1,0.5C80,58.5,80.1,58.4,80.2,58.1L80.2,58.1z"/>
					<path id="Caminho_1345" class="st11" d="M83.3,54.2c0,0.1,0,0.1,0,0.2c0,0.1-0.1,0.2-0.2,0.2c-0.1,0-0.3-0.1-0.3-0.2
						c0-0.1,0-0.3,0-0.4c-0.1-0.8-0.4-1.6-1-2.1c0,0-0.1-0.1-0.1-0.1c-0.1-0.1-0.1-0.3,0-0.4c0.1-0.1,0.3-0.1,0.4,0c0,0,0,0,0,0l0,0
						c0.2,0.2,0.4,0.5,0.6,0.7C83,52.7,83.3,53.4,83.3,54.2z"/>
					<path id="Caminho_1346" class="st11" d="M75.7,54.2c0-1.1,0.5-2.1,1.2-2.9c0.1-0.1,0.2-0.1,0.4-0.1c0.1,0.1,0.1,0.2,0.1,0.4
						c0,0,0,0,0,0c0,0,0,0,0,0c-0.5,0.5-0.8,1.1-1,1.7c-0.1,0.3-0.1,0.6-0.1,0.9c0,0.1-0.1,0.3-0.3,0.3c0,0,0,0,0,0h0
						c-0.1,0-0.3-0.1-0.3-0.3L75.7,54.2L75.7,54.2z"/>
				</g>
			</g>
		</g>
		<g id="Grupo_2662" transform="translate(416.411 291.864)">
			<g id="Grupo_2661">
				<g id="Grupo_2654-4-2" transform="translate(0 0.398)">
					<path id="Caminho_1336-4-2" class="st10" d="M85.5,51.7v5.8c0,0,0,0,0,0c-0.1,0.5-0.5,0.8-0.9,0.8h-7.9c-0.5,0-0.9-0.4-1-0.9
						c0,0,0,0,0,0c0,0,0,0,0-0.1v-5.5c0-0.1,0-0.2,0-0.3c0.1-0.4,0.5-0.7,0.9-0.7h7.2c0.3,0,0.6,0,0.8,0c0.4,0,0.7,0.3,0.9,0.6
						C85.5,51.6,85.5,51.6,85.5,51.7z M76.3,52.2v5.1c0,0.2,0.1,0.3,0.3,0.4c0,0,0,0,0,0c0,0,0.1,0,0.1,0h7.9c0.2,0,0.3-0.1,0.4-0.3
						c0,0,0-0.1,0-0.1v-5c0,0,0-0.1,0-0.1c0,0-0.1,0-0.1,0.1l-4,3.5c-0.1,0.1-0.3,0.1-0.4,0c0,0,0,0,0,0l-3.4-3L76.3,52.2z
						 M84.7,51.5c-0.1,0-8.1,0-8.2,0l4.1,3.6L84.7,51.5z"/>
				</g>
				<g id="Grupo_2497-2" transform="translate(15.593)">
					<g id="Grupo_2660">
						<path id="Caminho_1344-2" class="st10" d="M79.4,59.2c-0.1,0-0.1,0-0.2,0c-0.5-0.1-0.8-0.5-0.9-0.9c0-0.1,0-0.1-0.1-0.1
							c-0.5,0-1,0-1.5,0c-0.3,0-0.6-0.2-0.6-0.6c0-0.2,0.1-0.4,0.2-0.5c0.2-0.2,0.4-0.4,0.5-0.7c0.2-0.3,0.3-0.7,0.3-1.1
							c0-0.4,0-0.7,0-1.1c0-0.8,0.5-1.6,1.3-2c0.2-0.1,0.5-0.2,0.8-0.3l0.1,0v-0.4c0-0.1,0-0.3,0-0.4c0-0.1,0.1-0.2,0.2-0.3
							c0.1,0,0.3,0.1,0.3,0.2c0,0,0,0.1,0,0.1v0.7c0.1,0,0.2,0,0.3,0.1c1,0.2,1.8,1.1,1.9,2.1c0,0.4,0,0.7,0,1.1
							c0,0.7,0.3,1.5,0.8,1.9c0.3,0.2,0.3,0.6,0.1,0.8c-0.1,0.1-0.2,0.2-0.3,0.2c-0.1,0-0.1,0-0.2,0c-0.5,0-1,0-1.5,0h-0.1
							c0,0,0,0.1,0,0.1c-0.1,0.5-0.6,0.8-1,0.9l-0.1,0L79.4,59.2z M79.5,57.6c0.9,0,1.9,0,2.8,0c0,0,0.1,0,0.1-0.1c0,0,0-0.1,0-0.1
							c-0.6-0.6-1-1.4-1-2.2c0-0.3,0-0.6,0-0.9c0-0.1,0-0.3,0-0.4c-0.2-1-1.2-1.7-2.3-1.5c-0.8,0.2-1.4,0.9-1.5,1.7
							c0,0.4,0,0.7,0,1.1c0,0.8-0.3,1.5-0.9,2.1c0,0-0.1,0.1-0.1,0.1c0,0,0,0.1,0,0.1c0,0,0,0,0.1,0.1c0,0,0,0,0.1,0L79.5,57.6z
							 M80.2,58.1h-1.4c0.1,0.4,0.6,0.6,1,0.5C80,58.5,80.1,58.4,80.2,58.1L80.2,58.1z"/>
						<path id="Caminho_1345-2" class="st10" d="M83.3,54.2c0,0.1,0,0.1,0,0.2c0,0.1-0.1,0.2-0.2,0.2c-0.1,0-0.3-0.1-0.3-0.2
							c0-0.1,0-0.3,0-0.4c-0.1-0.8-0.4-1.6-1-2.1c0,0-0.1-0.1-0.1-0.1c-0.1-0.1-0.1-0.3,0-0.4c0.1-0.1,0.3-0.1,0.4,0l0,0
							c0.2,0.2,0.4,0.5,0.6,0.7C83,52.7,83.3,53.4,83.3,54.2z"/>
						<path id="Caminho_1346-2" class="st10" d="M75.7,54.2c0-1.1,0.5-2.1,1.2-2.9c0.1-0.1,0.2-0.1,0.4-0.1c0.1,0.1,0.1,0.2,0.1,0.4
							c0,0,0,0,0,0c0,0,0,0,0,0c-0.5,0.5-0.8,1.1-1,1.7c-0.1,0.3-0.1,0.6-0.1,0.9c0,0.1-0.1,0.3-0.3,0.3c0,0,0,0,0,0h0
							c-0.1,0-0.3-0.1-0.3-0.3c0,0,0,0,0,0v0C75.7,54.3,75.7,54.2,75.7,54.2z"/>
					</g>
				</g>
			</g>
		</g>
		<g id="Grupo_2665-2" transform="translate(413.583 388.508)">
			<g id="Grupo_2664">
				<g id="Grupo_2654-4-3" transform="translate(0 0.398)">
					<path id="Caminho_1336-4-3" class="st9" d="M85.5,51.7v5.8c0,0,0,0,0,0c-0.1,0.5-0.5,0.8-0.9,0.8h-7.9c-0.5,0-0.9-0.4-1-0.9
						c0,0,0,0,0,0c0,0,0,0,0-0.1v-5.5c0-0.1,0-0.2,0-0.3c0.1-0.4,0.5-0.7,0.9-0.7h7.2c0.3,0,0.6,0,0.8,0c0.4,0,0.7,0.3,0.9,0.6
						C85.5,51.6,85.5,51.6,85.5,51.7z M76.3,52.2v5.1c0,0.2,0.1,0.3,0.3,0.4c0,0,0.1,0,0.1,0h7.9c0.2,0,0.3-0.1,0.4-0.3
						c0,0,0-0.1,0-0.1v-5c0,0,0-0.1,0-0.1c0,0-0.1,0-0.1,0.1l-4,3.5c-0.1,0.1-0.3,0.1-0.4,0c0,0,0,0,0,0c0,0,0,0,0,0l-3.4-3
						L76.3,52.2z M84.7,51.5c-0.1,0-8.1,0-8.2,0l4.1,3.6L84.7,51.5z"/>
				</g>
				<g id="Grupo_2497-3" transform="translate(15.593)">
					<g id="Grupo_2663">
						<path id="Caminho_1344-3" class="st9" d="M79.4,59.2c-0.1,0-0.1,0-0.2,0c-0.5-0.1-0.8-0.5-0.9-0.9c0-0.1,0-0.1-0.1-0.1
							c-0.5,0-1,0-1.5,0c-0.3,0-0.6-0.2-0.6-0.6c0-0.2,0.1-0.4,0.2-0.5c0.5-0.5,0.8-1.1,0.8-1.8c0-0.4,0-0.7,0-1.1
							c0-0.8,0.5-1.6,1.3-2c0.2-0.1,0.5-0.2,0.8-0.3l0.1,0v-0.4c0-0.1,0-0.3,0-0.4c0-0.1,0.1-0.3,0.3-0.2c0.1,0,0.2,0.1,0.2,0.2
							c0,0,0,0.1,0,0.1v0.7c0.1,0,0.2,0,0.3,0.1c1,0.2,1.8,1.1,1.8,2.1c0,0.4,0,0.7,0,1.1c0,0.7,0.3,1.5,0.8,1.9
							c0.3,0.2,0.3,0.6,0.1,0.8c-0.1,0.1-0.2,0.2-0.3,0.2c-0.1,0-0.1,0-0.2,0c-0.5,0-1,0-1.5,0h-0.1c0,0,0,0.1,0,0.1
							c-0.1,0.5-0.6,0.8-1,0.9l-0.1,0L79.4,59.2z M79.5,57.6c0.9,0,1.9,0,2.8,0c0,0,0.1,0,0.1-0.1c0,0,0-0.1,0-0.1
							c-0.6-0.6-1-1.4-1-2.2c0-0.3,0-0.6,0-0.9c0-0.1,0-0.3,0-0.4c-0.2-1-1.2-1.7-2.3-1.5c-0.8,0.2-1.4,0.9-1.5,1.7
							c0,0.4,0,0.7,0,1.1c0,0.8-0.3,1.5-0.9,2.1c0,0-0.1,0.1-0.1,0.1c0,0,0,0.1,0,0.1c0,0,0,0,0.1,0.1c0,0,0,0,0.1,0L79.5,57.6z
							 M80.2,58.1h-1.4c0.1,0.4,0.6,0.6,1,0.5C80,58.5,80.1,58.4,80.2,58.1L80.2,58.1z"/>
						<path id="Caminho_1345-3" class="st9" d="M83.3,54.2c0,0.1,0,0.1,0,0.2c0,0.1-0.1,0.2-0.2,0.2c-0.1,0-0.3-0.1-0.3-0.2
							c0-0.1,0-0.3,0-0.4c-0.1-0.8-0.4-1.6-1-2.1c0,0-0.1-0.1-0.1-0.1c-0.1-0.1-0.1-0.3,0-0.4c0.1-0.1,0.3-0.1,0.4,0c0,0,0,0,0,0
							l0,0c0.2,0.2,0.4,0.5,0.6,0.7C83,52.7,83.3,53.4,83.3,54.2z"/>
						<path id="Caminho_1346-3" class="st9" d="M75.7,54.2c0-1.1,0.5-2.1,1.2-2.9c0.1-0.1,0.2-0.1,0.4-0.1c0.1,0.1,0.1,0.2,0.1,0.4
							c0,0,0,0,0,0c0,0,0,0,0,0c-0.5,0.5-0.8,1.1-1,1.7c-0.1,0.3-0.1,0.6-0.1,0.9c0,0.1-0.1,0.3-0.3,0.3h0h0c-0.1,0-0.3-0.1-0.3-0.3
							L75.7,54.2L75.7,54.2z"/>
					</g>
				</g>
			</g>
		</g>
		<g id="Grupo_2666" transform="translate(335.865 538.472)">
			<line id="Linha_187-2" class="st12" x1="78.1" y1="59.4" x2="341.5" y2="59.4"/>
			<ellipse id="Elipse_51-2" class="st13" cx="78.1" cy="59.6" rx="2.4" ry="2.6"/>
			<g id="Grupo_2665-3" transform="translate(257.069)">
				<line id="Linha_194-2" class="st12" x1="84.4" y1="59.6" x2="75.7" y2="50.9"/>
				<line id="Linha_195-2" class="st12" x1="84.4" y1="59.6" x2="75.7" y2="68.4"/>
			</g>
		</g>
		<line id="Linha_188" class="st12" x1="411.6" y1="339.1" x2="832.9" y2="339.1"/>
		<line id="Linha_188-2" class="st12" x1="618.5" y1="356.8" x2="854.3" y2="356.8"/>
		<line id="Linha_190" class="st12" x1="618.8" y1="435.2" x2="618.8" y2="356.8"/>
		<g id="Grupo_2667" transform="translate(754.541 256.224)">
			<line id="Linha_190-2" class="st12" x1="78.4" y1="83.4" x2="78.4" y2="53.6"/>
			<circle id="Elipse_52" class="st13" cx="78.4" cy="53.6" r="2.7"/>
		</g>
		<line id="Linha_190-3" class="st12" x1="853.6" y1="356.8" x2="853.6" y2="309.8"/>
		<circle id="Elipse_52-2" class="st13" cx="854.3" cy="309.8" r="2.7"/>
		<circle id="Elipse_52-3" class="st13" cx="711.6" cy="435" r="2.7"/>
		<line id="Linha_188-3" class="st12" x1="411.3" y1="435" x2="712" y2="435"/>
		<rect id="Retângulo_1885" x="75.7" y="227.5" class="st14" width="967" height="250.7"/>
		<rect id="Retângulo_1886" x="75.7" y="539.8" class="st14" width="967" height="250.7"/>
		<line id="Linha_188-4" class="st12" x1="411.6" y1="658.8" x2="818.4" y2="658.8"/>
		<line id="Linha_188-5" class="st12" x1="604" y1="676" x2="839.7" y2="676"/>
		<line id="Linha_190-4" class="st12" x1="604.3" y1="754.4" x2="604.3" y2="676"/>
		<g id="Grupo_2668" transform="translate(740.029 575.443)">
			<line id="Linha_190-5" class="st12" x1="78.4" y1="83.4" x2="78.4" y2="53.6"/>
			<circle id="Elipse_52-4" class="st13" cx="78.4" cy="53.6" r="2.7"/>
		</g>
		<g id="Grupo_2669" transform="translate(760.739 575.443)">
			<line id="Linha_190-6" class="st12" x1="78.4" y1="83.4" x2="78.4" y2="53.6"/>
			<circle id="Elipse_52-5" class="st13" cx="78.4" cy="53.6" r="2.7"/>
		</g>
		<line id="Linha_190-7" class="st12" x1="839.1" y1="676" x2="839.1" y2="629"/>
		<circle id="Elipse_52-6" class="st13" cx="697.1" cy="754.4" r="2.7"/>
		<line id="Linha_188-6" class="st12" x1="411.6" y1="754.5" x2="697.5" y2="754.5"/>
		<g id="Grupo_2672" transform="translate(416.639 551.159)">
			<g id="Grupo_2671">
				<g id="Grupo_2654-4-4" transform="translate(0 0.398)">
					<path id="Caminho_1336-4-4" class="st6" d="M85.5,51.7v5.8c0,0,0,0,0,0c-0.1,0.5-0.5,0.8-0.9,0.8h-7.9c-0.5,0-0.9-0.4-1-0.9
						c0,0,0,0,0,0c0,0,0,0,0-0.1v-5.5c0-0.1,0-0.2,0-0.3c0.1-0.4,0.5-0.7,0.9-0.7h7.1c0.3,0,0.6,0,0.8,0c0.4,0,0.7,0.3,0.9,0.6
						C85.5,51.6,85.5,51.6,85.5,51.7z M76.3,52.2v5.1c0,0.2,0.1,0.3,0.3,0.4c0,0,0,0,0,0c0,0,0.1,0,0.1,0h7.9c0.2,0,0.3-0.1,0.4-0.3
						c0,0,0,0,0,0c0,0,0-0.1,0-0.1v-5c0,0,0-0.1,0-0.1c0,0-0.1,0-0.1,0.1l-4,3.5c-0.1,0.1-0.3,0.1-0.4,0c0,0,0,0,0,0l-3.4-3
						L76.3,52.2z M84.7,51.5c-0.1,0-8.1,0-8.2,0l4.1,3.6L84.7,51.5z"/>
				</g>
				<g id="Grupo_2497-4" transform="translate(15.593)">
					<g id="Grupo_2670">
						<path id="Caminho_1344-4" class="st6" d="M79.4,59.2c-0.1,0-0.1,0-0.2,0c-0.5-0.1-0.8-0.5-0.9-0.9c0-0.1,0-0.1-0.1-0.1
							c-0.5,0-1,0-1.5,0c-0.3,0-0.6-0.2-0.6-0.6c0-0.2,0.1-0.4,0.2-0.5c0.2-0.2,0.4-0.4,0.5-0.7c0.2-0.3,0.3-0.7,0.3-1.1
							c0-0.4,0-0.7,0-1.1c0-0.8,0.5-1.6,1.3-2c0.2-0.1,0.5-0.2,0.8-0.3l0.1,0v-0.4c0-0.1,0-0.3,0-0.4c0-0.1,0.1-0.3,0.3-0.2
							c0.1,0,0.2,0.1,0.2,0.2c0,0,0,0.1,0,0.1v0.7c0.1,0,0.2,0,0.3,0.1c1,0.2,1.8,1.1,1.8,2.1c0,0.4,0,0.7,0,1.1
							c0,0.7,0.3,1.5,0.8,1.9c0.3,0.2,0.3,0.6,0.1,0.8c-0.1,0.1-0.2,0.2-0.3,0.2c-0.1,0-0.1,0-0.2,0c-0.5,0-1,0-1.5,0h-0.1
							c0,0,0,0.1,0,0.1c-0.1,0.5-0.6,0.8-1,0.9l-0.1,0L79.4,59.2z M79.5,57.6c0.9,0,1.9,0,2.8,0c0,0,0.1,0,0.1-0.1c0,0,0-0.1,0-0.1
							c-0.6-0.6-1-1.4-1-2.2c0-0.3,0-0.6,0-0.9c0-0.1,0-0.3,0-0.4c-0.2-1-1.2-1.7-2.3-1.5c-0.8,0.2-1.4,0.9-1.5,1.7
							c0,0.4,0,0.7,0,1.1c0,0.8-0.3,1.5-0.9,2.1c0,0-0.1,0.1-0.1,0.1c0,0,0,0.1,0,0.1c0,0,0,0,0.1,0.1c0,0,0,0,0.1,0L79.5,57.6z
							 M80.2,58.1h-1.4c0.1,0.4,0.6,0.6,1,0.5C80,58.5,80.1,58.4,80.2,58.1L80.2,58.1z"/>
						<path id="Caminho_1345-4" class="st6" d="M83.3,54.2c0,0.1,0,0.1,0,0.2c0,0.1-0.1,0.2-0.2,0.2c-0.1,0-0.3-0.1-0.3-0.2
							c0-0.1,0-0.3,0-0.4c-0.1-0.8-0.4-1.6-1-2.1c0,0-0.1-0.1-0.1-0.1c-0.1-0.1-0.1-0.3,0-0.4c0.1-0.1,0.3-0.1,0.4,0c0,0,0,0,0,0
							l0,0c0.2,0.2,0.4,0.5,0.6,0.7C83,52.7,83.3,53.4,83.3,54.2z"/>
						<path id="Caminho_1346-4" class="st6" d="M75.7,54.2c0-1.1,0.5-2.1,1.2-2.9c0.1-0.1,0.3-0.1,0.4,0c0.1,0.1,0.1,0.3,0,0.4
							c0,0,0,0,0,0c-0.5,0.5-0.8,1.1-1,1.7c-0.1,0.3-0.1,0.6-0.1,0.9c0,0.1-0.1,0.3-0.3,0.3c0,0,0,0,0,0h0c-0.1,0-0.3-0.1-0.3-0.3
							c0,0,0,0,0,0v0C75.7,54.3,75.7,54.2,75.7,54.2z"/>
					</g>
				</g>
			</g>
		</g>
		<g id="Grupo_2653-3" transform="translate(357.244 589.891)">
			<g id="Grupo_1646-9-2" transform="translate(0)">
				<g id="APROVADO-2">
					<text transform="matrix(1 0 0 1 75.6912 61.8708)" class="st9 st3 st4">ALERTA DE APROVAÇÃO</text>
				</g>
			</g>
		</g>
		<g id="Grupo_2675" transform="translate(414.671 612.374)">
			<g id="Grupo_2674">
				<g id="Grupo_2654-4-5" transform="translate(0 0.398)">
					<path id="Caminho_1336-4-5" class="st9" d="M85.5,51.7v5.8c0,0,0,0,0,0c-0.1,0.5-0.5,0.8-0.9,0.8h-7.9c-0.5,0-0.9-0.4-1-0.9
						c0,0,0,0,0-0.1v-5.5c0-0.1,0-0.2,0-0.3c0.1-0.4,0.5-0.7,0.9-0.7h7.2c0.3,0,0.5,0,0.8,0c0.4,0,0.7,0.3,0.9,0.6
						C85.5,51.6,85.5,51.6,85.5,51.7z M76.3,52.2v5.1c0,0.2,0.1,0.3,0.3,0.4c0,0,0.1,0,0.1,0h7.9c0.2,0,0.3-0.1,0.4-0.3c0,0,0,0,0,0
						c0,0,0-0.1,0-0.1v-5c0,0,0-0.1,0-0.1c0,0-0.1,0-0.1,0.1l-4,3.4c-0.1,0.1-0.3,0.1-0.4,0c0,0,0,0,0,0c0,0,0,0,0,0l-3.4-3
						L76.3,52.2z M84.7,51.5c-0.1,0-8.1,0-8.2,0l4.1,3.6L84.7,51.5z"/>
				</g>
				<g id="Grupo_2497-5" transform="translate(15.593)">
					<g id="Grupo_2673">
						<path id="Caminho_1344-5" class="st9" d="M79.4,59.2c-0.1,0-0.1,0-0.2,0c-0.5-0.1-0.8-0.5-0.9-0.9c0-0.1,0-0.1-0.1-0.1
							c-0.5,0-1,0-1.5,0c-0.3,0-0.6-0.3-0.6-0.6c0-0.2,0.1-0.4,0.2-0.5c0.2-0.2,0.4-0.4,0.5-0.7c0.2-0.3,0.3-0.7,0.3-1.1
							c0-0.4,0-0.7,0-1.1c0-0.8,0.5-1.6,1.3-2c0.2-0.1,0.5-0.2,0.8-0.3l0.1,0v-0.4c0-0.1,0-0.3,0-0.4c0-0.1,0.1-0.2,0.2-0.3
							c0.1,0,0.3,0.1,0.3,0.2c0,0,0,0.1,0,0.1v0.7c0.1,0,0.2,0,0.3,0.1c1,0.2,1.8,1.1,1.8,2.1c0,0.3,0,0.7,0,1.1
							c0,0.7,0.3,1.5,0.8,1.9c0.3,0.2,0.3,0.6,0.1,0.8c-0.1,0.1-0.2,0.2-0.3,0.2c-0.1,0-0.1,0-0.2,0c-0.5,0-1,0-1.5,0h-0.1
							c0,0,0,0.1,0,0.1c-0.1,0.5-0.6,0.8-1,0.9c0,0,0,0-0.1,0L79.4,59.2z M79.5,57.6h2.8c0,0,0.1,0,0.1-0.1c0,0,0-0.1,0-0.1
							c-0.6-0.6-1-1.4-1-2.2c0-0.3,0-0.6,0-0.9c0-0.1,0-0.3,0-0.4c-0.2-1-1.2-1.7-2.3-1.5c-0.8,0.2-1.4,0.9-1.5,1.7
							c0,0.4,0,0.7,0,1.1c0,0.8-0.3,1.5-0.9,2.1c0,0-0.1,0.1-0.1,0.1c0,0,0,0.1,0,0.1c0,0,0,0,0.1,0.1c0,0,0,0,0.1,0L79.5,57.6z
							 M80.2,58.1h-1.4c0.1,0.4,0.6,0.6,1,0.5C80,58.5,80.1,58.4,80.2,58.1L80.2,58.1z"/>
						<path id="Caminho_1345-5" class="st9" d="M83.3,54.2c0,0.1,0,0.1,0,0.2c0,0.1-0.1,0.2-0.2,0.2c-0.1,0-0.3-0.1-0.3-0.2
							c0-0.1,0-0.3,0-0.4c-0.1-0.8-0.4-1.6-1-2.1c0,0-0.1-0.1-0.1-0.1c-0.1-0.1-0.1-0.3,0-0.4c0.1-0.1,0.3-0.1,0.4,0l0,0
							c0.2,0.2,0.4,0.5,0.6,0.7C83,52.7,83.3,53.4,83.3,54.2z"/>
						<path id="Caminho_1346-5" class="st9" d="M75.7,54.2c0-1.1,0.5-2.1,1.2-2.9c0.1-0.1,0.3-0.1,0.4,0c0.1,0.1,0.1,0.2,0,0.3
							c0,0,0,0,0,0c-0.5,0.5-0.8,1.1-1,1.7c-0.1,0.3-0.1,0.6-0.1,0.9c0,0.1-0.1,0.3-0.3,0.3l0,0h0c-0.1,0-0.3-0.1-0.3-0.3L75.7,54.2
							L75.7,54.2z"/>
					</g>
				</g>
			</g>
		</g>
		<g id="Grupo_2653-4-2" transform="translate(356.156 686.247)">
			<g id="Grupo_1646-9-3">
				<g id="APROVADO-3">
					<text transform="matrix(1 0 0 1 75.6912 61.8708)" class="st13 st3 st4">ALERTA DE CANCELAMENTO</text>
				</g>
			</g>
		</g>
		<g id="Grupo_2677" transform="translate(426.984 708.729)">
			<g id="Grupo_2654-4-6" transform="translate(0 0.398)">
				<path id="Caminho_1336-4-6" class="st13" d="M85.5,51.7v5.8c0,0,0,0,0,0c-0.1,0.5-0.5,0.8-0.9,0.8h-7.9c-0.5,0-0.9-0.4-1-0.9
					c0,0,0,0,0-0.1v-5.5c0-0.1,0-0.2,0-0.3c0.1-0.4,0.5-0.7,0.9-0.7h7.2c0.3,0,0.5,0,0.8,0c0.4,0,0.7,0.3,0.9,0.6
					C85.5,51.6,85.5,51.6,85.5,51.7z M76.3,52.2v5.1c0,0.2,0.1,0.3,0.3,0.4c0,0,0,0,0,0c0,0,0.1,0,0.1,0h7.9c0.2,0,0.3-0.1,0.4-0.3
					c0,0,0-0.1,0-0.1v-5c0,0,0-0.1,0-0.1c0,0-0.1,0-0.1,0.1l-4,3.5c-0.1,0.1-0.3,0.1-0.4,0c0,0,0,0,0,0c0,0,0,0,0,0l-3.4-3
					L76.3,52.2z M84.7,51.5c-0.1,0-8.1,0-8.2,0l4.1,3.6L84.7,51.5z"/>
			</g>
			<g id="Grupo_2497-6" transform="translate(15.593)">
				<g id="Grupo_2676">
					<path id="Caminho_1344-6" class="st13" d="M79.4,59.2c-0.1,0-0.1,0-0.2,0c-0.5-0.1-0.8-0.5-0.9-0.9c0-0.1,0-0.1-0.1-0.1
						c-0.5,0-1,0-1.5,0c-0.3,0-0.6-0.3-0.6-0.6c0-0.2,0.1-0.4,0.2-0.5c0.2-0.2,0.4-0.4,0.5-0.7c0.2-0.3,0.3-0.7,0.3-1.1
						c0-0.4,0-0.7,0-1.1c0-0.8,0.5-1.6,1.3-2c0.2-0.1,0.5-0.2,0.8-0.3l0.1,0v-0.4c0-0.1,0-0.3,0-0.4c0-0.1,0.1-0.2,0.2-0.3
						c0.1,0,0.2,0.1,0.3,0.2c0,0,0,0.1,0,0.1v0.7c0.1,0,0.2,0,0.3,0.1c1,0.2,1.8,1.1,1.8,2.1c0,0.4,0,0.7,0,1.1
						c0,0.7,0.3,1.5,0.8,1.9c0.3,0.2,0.3,0.6,0.1,0.8c-0.1,0.1-0.2,0.2-0.3,0.2c-0.1,0-0.1,0-0.2,0c-0.5,0-1,0-1.5,0h-0.1
						c0,0,0,0.1,0,0.1c-0.1,0.5-0.6,0.8-1,0.9c0,0,0,0-0.1,0L79.4,59.2z M79.5,57.6h2.8c0,0,0.1,0,0.1-0.1c0,0,0-0.1,0-0.1
						c-0.6-0.6-1-1.4-1-2.2c0-0.3,0-0.6,0-0.9c0-0.1,0-0.3,0-0.4c-0.2-1-1.2-1.7-2.3-1.5c-0.8,0.2-1.4,0.9-1.5,1.7
						c0,0.4,0,0.7,0,1.1c0,0.8-0.3,1.5-0.9,2.1c0,0-0.1,0.1-0.1,0.1c0,0,0,0.1,0,0.1c0,0,0,0,0.1,0.1c0,0,0,0,0.1,0L79.5,57.6z
						 M80.2,58.1h-1.4c0.1,0.4,0.6,0.6,1,0.5C80,58.5,80.1,58.4,80.2,58.1L80.2,58.1z"/>
					<path id="Caminho_1345-6" class="st13" d="M83.3,54.2c0,0.1,0,0.1,0,0.2c0,0.1-0.1,0.2-0.2,0.2c-0.1,0-0.3-0.1-0.3-0.2
						c0-0.1,0-0.3,0-0.4c-0.1-0.8-0.4-1.6-1-2.1c0,0-0.1-0.1-0.1-0.1c-0.1-0.1-0.1-0.3,0-0.4c0.1-0.1,0.3-0.1,0.4,0l0,0
						c0.2,0.2,0.4,0.5,0.6,0.7C83,52.7,83.3,53.4,83.3,54.2z"/>
					<path id="Caminho_1346-6" class="st13" d="M75.7,54.2c0-1.1,0.5-2.1,1.2-2.9c0.1-0.1,0.3-0.1,0.4,0c0.1,0.1,0.1,0.2,0,0.3
						c0,0,0,0,0,0c-0.5,0.5-0.8,1.1-1,1.7c-0.1,0.3-0.1,0.6-0.1,0.9c0,0.1-0.1,0.3-0.3,0.3l0,0h0c-0.1,0-0.3-0.1-0.3-0.3L75.7,54.2
						L75.7,54.2z"/>
				</g>
			</g>
		</g>
		<g id="Grupo_2665-4" transform="translate(335.642 279.53)">
			<line id="Linha_194-3" class="st12" x1="75.7" y1="59.6" x2="84.4" y2="68.4"/>
			<line id="Linha_195-3" class="st12" x1="75.7" y1="59.6" x2="84.4" y2="50.9"/>
		</g>
		<g id="Grupo_2665-5" transform="translate(335.642 375.353)">
			<line id="Linha_194-4" class="st12" x1="75.7" y1="59.6" x2="84.4" y2="68.4"/>
			<line id="Linha_195-4" class="st12" x1="75.7" y1="59.6" x2="84.4" y2="50.9"/>
		</g>
		<g id="Grupo_2665-6" transform="translate(335.865 694.79)">
			<line id="Linha_194-5" class="st12" x1="75.7" y1="59.6" x2="84.4" y2="68.4"/>
			<line id="Linha_195-5" class="st12" x1="75.7" y1="59.6" x2="84.4" y2="50.9"/>
		</g>
		<g id="Grupo_2665-7" transform="translate(335.865 599.192)">
			<line id="Linha_194-6" class="st12" x1="75.7" y1="59.6" x2="84.4" y2="68.4"/>
			<line id="Linha_195-6" class="st12" x1="75.7" y1="59.6" x2="84.4" y2="50.9"/>
		</g>
	</g>
</g>
</svg>
