<svg xmlns="http://www.w3.org/2000/svg" xmlns:xlink="http://www.w3.org/1999/xlink" width="14.46" height="13.624" viewBox="0 0 14.46 13.624"><defs><style>.a{fill:url(#a);}</style><linearGradient id="a" x1="0.5" x2="0.5" y2="1" gradientUnits="objectBoundingBox"><stop offset="0" stop-color="#00aae0"/><stop offset="1" stop-color="#c467ed"/></linearGradient></defs><g transform="translate(-220.5 -575.809)"><path class="a" d="M220.5,587.557v-.48a4.826,4.826,0,0,1,.264-.766q2.538-4.7,5.1-9.387a2.117,2.117,0,0,1,3.732,0q2.556,4.689,5.1,9.385a1.989,1.989,0,0,1,.02,1.96,2.08,2.08,0,0,1-1.98,1.16q-5.022,0-10.045,0c-.056,0-.113,0-.169,0a2.045,2.045,0,0,1-1.821-1.243A4.649,4.649,0,0,1,220.5,587.557Zm6.378-5.764q0,.826,0,1.651a1.1,1.1,0,0,0,.014.21.846.846,0,0,0,1.678-.158q0-1.672,0-3.344a.848.848,0,1,0-1.694,0C226.877,580.7,226.878,581.247,226.878,581.793Zm.852,5.942a1.271,1.271,0,1,0-1.275-1.267A1.269,1.269,0,0,0,227.73,587.735Z"/></g></svg>